<svg xmlns="http://www.w3.org/2000/svg" viewBox="0 0 120 80"><defs><style>.cls-1{fill:#fff;}.cls-10,.cls-2,.cls-4{fill:#6a5faa;}.cls-2,.cls-7{opacity:0.1;}.cls-10,.cls-2,.cls-5,.cls-7{isolation:isolate;}.cls-3{fill:none;stroke:#535561;stroke-miterlimit:10;stroke-width:2px;}.cls-5{opacity:0.25;}.cls-6{fill:#c8cad2;}.cls-8{fill:#474157;}.cls-9{fill:#ededef;}.cls-10{opacity:0.2;}.cls-11{fill:#d5dee3;}.cls-12{fill:#a0616a;}</style></defs><g id="レイヤー_2" data-name="レイヤー 2"><g id="レイヤー_1-2" data-name="レイヤー 1"><rect class="cls-1" width="120" height="80"/><path class="cls-2" d="M114.37,19.78a23.29,23.29,0,0,0-4.49-6l-62.25-.52L98.88,7.14A34,34,0,0,0,88.49,5.39a33.5,33.5,0,0,0-34.82-1A33.26,33.26,0,0,0,40.35,1.68C26.51,1.68,15,9.78,12.4,20.52Z"/><path class="cls-2" d="M116.56,28.79a19.84,19.84,0,0,0-1.94-8.5L6.73,29.86a21.11,21.11,0,0,0-2.52,5.4l33.4,4.21L3.44,42.54C4.47,54.7,16.8,64.3,31.86,64.3a31.9,31.9,0,0,0,19.57-6.4,31.89,31.89,0,0,0,19.74,6.52C82.54,64.42,92.35,59,96.92,51c9.17-2.46,16.29-8.64,18.73-16.36L73.4,29.14h43.16Z"/><path class="cls-3" d="M31.81,55.36s-4.62-6.67-3.84-13a12.29,12.29,0,0,0-1.48-7.65,21.45,21.45,0,0,0-2.17-3.09"/><path class="cls-4" d="M24.79,27.67c.3.91-.47,4.08-.47,4.08s-2.52-2.08-2.82-3a1.73,1.73,0,0,1,3.29-1.09Z"/><path class="cls-4" d="M29.16,31.8c-.24.92-2.61,3.16-2.61,3.16s-1-3.11-.73-4a1.72,1.72,0,1,1,3.35.82v.05Z"/><path class="cls-4" d="M31.88,40.42c-.67.67-3.85,1.41-3.85,1.41s.73-3.18,1.4-3.85a1.73,1.73,0,1,1,2.45,2.44Z"/><path class="cls-4" d="M32.47,47.41c-.55.78-3.56,2-3.56,2s.19-3.26.74-4a1.73,1.73,0,0,1,2.82,2Z"/><path class="cls-4" d="M23.16,36.28c.86.42,4.11.07,4.11.07s-1.74-2.76-2.61-3.18a1.73,1.73,0,0,0-1.5,3.11Z"/><path class="cls-4" d="M24,44.44c.95.14,3.94-1.16,3.94-1.16S25.41,41.16,24.46,41a1.73,1.73,0,1,0-.5,3.42Z"/><path class="cls-4" d="M25.81,52.27c.91.3,4.08-.48,4.08-.48s-2.09-2.5-3-2.81a1.73,1.73,0,0,0-1.08,3.29Z"/><path class="cls-5" d="M24.79,27.67c.3.91-.47,4.08-.47,4.08s-2.52-2.08-2.82-3a1.73,1.73,0,0,1,3.29-1.09Z"/><path class="cls-5" d="M29.16,31.8c-.24.92-2.61,3.16-2.61,3.16s-1-3.11-.73-4a1.72,1.72,0,1,1,3.35.82v.05Z"/><path class="cls-5" d="M31.88,40.42c-.67.67-3.85,1.41-3.85,1.41s.73-3.18,1.4-3.85a1.73,1.73,0,1,1,2.45,2.44Z"/><path class="cls-5" d="M32.47,47.41c-.55.78-3.56,2-3.56,2s.19-3.26.74-4a1.73,1.73,0,0,1,2.82,2Z"/><path class="cls-5" d="M23.16,36.28c.86.42,4.11.07,4.11.07s-1.74-2.76-2.61-3.18a1.73,1.73,0,0,0-1.5,3.11Z"/><path class="cls-5" d="M24,44.44c.95.14,3.94-1.16,3.94-1.16S25.41,41.16,24.46,41a1.73,1.73,0,1,0-.5,3.42Z"/><path class="cls-5" d="M25.81,52.27c.91.3,4.08-.48,4.08-.48s-2.09-2.5-3-2.81a1.73,1.73,0,0,0-1.08,3.29Z"/><path class="cls-3" d="M31.79,55.09S24.85,50.87,23,44.78a12.37,12.37,0,0,0-4.45-6.38,20.57,20.57,0,0,0-3.25-1.95"/><path class="cls-4" d="M14.14,32.63c.64.71,1.22,3.92,1.22,3.92s-3.14-.89-3.78-1.6a1.73,1.73,0,0,1,2.56-2.32Z"/><path class="cls-4" d="M19.81,34.63c.16.94-1.1,3.95-1.1,3.95s-2.15-2.45-2.31-3.4a1.73,1.73,0,0,1,3.41-.55Z"/><path class="cls-4" d="M25.79,41.4c-.34.89-2.95,2.86-2.95,2.86s-.62-3.21-.27-4.1a1.73,1.73,0,1,1,3.22,1.24Z"/><path class="cls-4" d="M29.17,47.55c-.19.94-2.43,3.31-2.43,3.31s-1.15-3-1-4a1.73,1.73,0,0,1,3.39.68Z"/><path class="cls-4" d="M16.14,41.16c1,0,3.78-1.61,3.78-1.61s-2.7-1.82-3.66-1.85a1.73,1.73,0,0,0-.12,3.45Z"/><path class="cls-4" d="M20.18,48.3c.92-.26,3.13-2.66,3.13-2.66s-3.13-.94-4-.68a1.73,1.73,0,0,0,.88,3.35Z"/><path class="cls-4" d="M25.05,54.7c.95-.1,3.53-2.1,3.53-2.1s-2.93-1.44-3.88-1.34a1.73,1.73,0,0,0,.35,3.44Z"/><ellipse class="cls-2" cx="60.07" cy="73.48" rx="17.92" ry="1.06"/><path class="cls-6" d="M68.31,71.61v.64h-19v-.52a6.24,6.24,0,0,0,.43-11.52H68.18a6.24,6.24,0,0,0,.13,11.4Z"/><path class="cls-7" d="M68.18,60.21a6.29,6.29,0,0,0-3.45,4.14H53.21a6.29,6.29,0,0,0-3.45-4.14Z"/><path class="cls-6" d="M27.59,56.94v3.6a3.45,3.45,0,0,0,3.25,3.61H86.7A3.45,3.45,0,0,0,90,60.54v-3.6Z"/><path class="cls-7" d="M68.31,71.61v.64h-19v-.52A5.87,5.87,0,0,0,50.79,71H67.15A6.32,6.32,0,0,0,68.31,71.61Z"/><path class="cls-6" d="M44,71.15H73.63a1,1,0,0,1,1,.95h0a1,1,0,0,1-1,1H44a1,1,0,0,1-1-1h0A1,1,0,0,1,44,71.15Z"/><path class="cls-8" d="M90,17.45A3.25,3.25,0,0,0,86.7,14.2H30.84a3.25,3.25,0,0,0-3.25,3.25h0V57.64H90Z"/><rect class="cls-9" x="29.29" y="17.3" width="58.96" height="37.74" rx="1.6"/><circle class="cls-1" cx="58.77" cy="15.75" r="0.75"/><circle class="cls-1" cx="58.77" cy="60.69" r="1.85"/><path class="cls-6" d="M88.25,18.9h-59a1.6,1.6,0,0,1,1.6-1.6H86.65A1.6,1.6,0,0,1,88.25,18.9Z"/><circle class="cls-9" cx="30.89" cy="18.1" r="0.4"/><circle class="cls-9" cx="32.09" cy="18.1" r="0.4"/><circle class="cls-9" cx="33.29" cy="18.1" r="0.4"/><rect class="cls-4" x="31.49" y="20.25" width="15.12" height="0.9"/><rect class="cls-4" x="31.49" y="46.58" width="15.12" height="0.9"/><rect class="cls-10" x="31.49" y="48.58" width="28.03" height="0.9"/><rect class="cls-10" x="31.49" y="49.88" width="28.03" height="0.9"/><rect class="cls-10" x="31.49" y="51.18" width="28.03" height="0.9"/><rect class="cls-10" x="31.49" y="22.65" width="27.83" height="15.12"/><rect class="cls-10" x="31.79" y="39.17" width="6.51" height="6.01"/><rect class="cls-10" x="52.81" y="39.17" width="6.51" height="6.01"/><rect class="cls-10" x="42.15" y="39.17" width="6.51" height="6.01"/><rect class="cls-10" x="65.26" y="27.05" width="19.15" height="14.1"/><rect class="cls-9" x="67.28" y="29.91" width="15.12" height="0.9"/><rect class="cls-9" x="67.28" y="31.78" width="15.12" height="0.9"/><rect class="cls-9" x="67.28" y="33.65" width="15.12" height="0.9"/><rect class="cls-9" x="67.28" y="35.52" width="15.12" height="0.9"/><rect class="cls-9" x="67.28" y="37.39" width="15.12" height="0.9"/><rect class="cls-4" x="67.6" y="42.75" width="14.48" height="2.54"/><rect class="cls-4" x="66.82" y="51.2" width="9.71" height="1.7"/><ellipse class="cls-2" cx="29.31" cy="77.61" rx="2.86" ry="0.29"/><ellipse class="cls-2" cx="87.91" cy="73.46" rx="1.72" ry="0.17"/><path class="cls-4" d="M30.31,72.83s-3.73,1.93-1.8,4.21a.72.72,0,0,0,.71.46s-.11-.2.3-.35a2.19,2.19,0,0,0,.4-.21,1,1,0,0,0,.36-.48h0a3.36,3.36,0,0,0,.17-2.92s.08-.53,0-.62l-.46.61a1.27,1.27,0,0,1,.52.78s-.48-.78-.59-.69L29.7,74a2.08,2.08,0,0,1,.88,1.27s-.46-1-.95-1.15l-.28.51a2.2,2.2,0,0,1,1,1.35s-.52-1-1.05-1.24l-.2.54s.85.54.93,1.22c0,0-.72-1.13-1-1.1a2.37,2.37,0,0,0-.14.65s.6.4.61.8c0,0-.56-.7-.64-.65A2.92,2.92,0,0,0,29,77.23a2.1,2.1,0,0,1-.24-1.07,1.1,1.1,0,0,0-.36.58s-.16-.39.37-.75a2.8,2.8,0,0,1,.11-.62,2.7,2.7,0,0,0-.82.62s.09-.51.87-.76l.2-.55a3.69,3.69,0,0,0-1,.62s.18-.5,1.08-.75l.27-.5a4.29,4.29,0,0,0-1,.5,1.78,1.78,0,0,1,1.11-.64l.22-.31s-.5.18-.64.25-.17,0-.17,0a1.81,1.81,0,0,1,.9-.41A4.09,4.09,0,0,0,30.31,72.83Z"/><ellipse class="cls-2" cx="20.39" cy="73.19" rx="2.19" ry="0.22"/><path class="cls-4" d="M21.16,69.53S18.3,71,19.78,72.75a.55.55,0,0,0,.54.35s-.08-.15.23-.26a1.46,1.46,0,0,0,.3-.17.74.74,0,0,0,.28-.37h0a2.52,2.52,0,0,0,.13-2.23,1.49,1.49,0,0,0,0-.48l-.35.48a1,1,0,0,1,.4.6s-.37-.6-.45-.53a2.85,2.85,0,0,0-.17.26,1.61,1.61,0,0,1,.67,1s-.36-.77-.74-.88l-.21.39a1.72,1.72,0,0,1,.76,1s-.4-.79-.8-1l-.16.41s.65.41.71.93c0,0-.54-.86-.74-.84a2.56,2.56,0,0,0-.11.5s.47.31.47.62c0,0-.42-.54-.49-.5a2.24,2.24,0,0,0,.1.82,1.65,1.65,0,0,1-.19-.82,1,1,0,0,0-.27.44s-.12-.3.28-.57a2,2,0,0,1,.09-.48,2.11,2.11,0,0,0-.63.48s.07-.39.67-.59l.15-.41a2.77,2.77,0,0,0-.78.47s.13-.39.82-.57l.21-.39a3.28,3.28,0,0,0-.79.39,1.31,1.31,0,0,1,.85-.49l.17-.24-.49.19c-.11.05-.13,0-.13,0a1.36,1.36,0,0,1,.69-.31A4.46,4.46,0,0,0,21.16,69.53Z"/><path class="cls-4" d="M88.7,70.57s-2.23,1.16-1.08,2.52a.43.43,0,0,0,.42.27s-.06-.11.18-.2a1.36,1.36,0,0,0,.24-.13.58.58,0,0,0,.22-.29h0a2,2,0,0,0,.1-1.75,1.14,1.14,0,0,0,0-.37l-.27.37a.8.8,0,0,1,.32.47s-.3-.46-.36-.41l-.13.2a1.27,1.27,0,0,1,.52.76s-.28-.6-.57-.69l-.16.31a1.3,1.3,0,0,1,.59.81s-.31-.62-.62-.74L88,72s.51.33.56.73c0,0-.43-.68-.58-.65a1.59,1.59,0,0,0-.09.39s.37.24.37.48c0,0-.33-.42-.38-.4a1.63,1.63,0,0,0,.08.65,1.22,1.22,0,0,1-.15-.65.75.75,0,0,0-.21.35s-.1-.24.22-.45a2,2,0,0,1,.06-.37,1.67,1.67,0,0,0-.49.37s.06-.3.52-.46l.12-.32a2.4,2.4,0,0,0-.61.37s.1-.3.65-.45l.16-.3a2.37,2.37,0,0,0-.62.3,1.07,1.07,0,0,1,.67-.38l.13-.19-.39.15c-.08,0-.1,0-.1,0a1.12,1.12,0,0,1,.54-.25A2.7,2.7,0,0,0,88.7,70.57Z"/><ellipse class="cls-2" cx="97.14" cy="79.65" rx="4.18" ry="0.35"/><path class="cls-4" d="M100.49,68.63a1.49,1.49,0,0,0-.23.43l0,.12-.08,0a1.1,1.1,0,0,0-.36,0s0-.09,0-.15c0-.52-.05-1.26-.55-1s-.14.8.17,1.13l.08.07c-.28.2-.34.68-.38,1.17a2.7,2.7,0,0,1-.75,1.33l-.07.09a1,1,0,0,0-.81-.21l0-.13c-.23-.81-.69-2.22-1.29-2.52l.08-.1c.25-.33.54-.82.12-.95s-.46.43-.44.84a.77.77,0,0,0,0,.15.58.58,0,0,0-.44.21L95.43,69c-.34-.4-1-1-1.15-.55s.37,1,.76,1.36l0,0c-.26,1,.88,1.91,1.49,2.28l.07,0A9.08,9.08,0,0,0,95.27,75l2.35.42s1.56-1.35,1.36-2.61h0a2.39,2.39,0,0,0,1.67-3h0a1.76,1.76,0,0,0,.72-.55A.58.58,0,0,0,100.49,68.63Z"/><path class="cls-7" d="M100.49,68.63a1.49,1.49,0,0,0-.23.43l0,.12-.08,0a1.1,1.1,0,0,0-.36,0s0-.09,0-.15c0-.52-.05-1.26-.55-1s-.14.8.17,1.13l.08.07c-.28.2-.34.68-.38,1.17a2.7,2.7,0,0,1-.75,1.33l-.07.09a1,1,0,0,0-.81-.21l0-.13c-.23-.81-.69-2.22-1.29-2.52l.08-.1c.25-.33.54-.82.12-.95s-.46.43-.44.84a.77.77,0,0,0,0,.15.58.58,0,0,0-.44.21L95.43,69c-.34-.4-1-1-1.15-.55s.37,1,.76,1.36l0,0c-.26,1,.88,1.91,1.49,2.28l.07,0A9.08,9.08,0,0,0,95.27,75l2.35.42s1.56-1.35,1.36-2.61h0a2.39,2.39,0,0,0,1.67-3h0a1.76,1.76,0,0,0,.72-.55A.58.58,0,0,0,100.49,68.63Z"/><path class="cls-4" d="M95.8,69.31l-.27.8a3.9,3.9,0,0,1-.35-.28c-.39-.34-.94-.92-.76-1.37s.81.15,1.15.56A3.63,3.63,0,0,1,95.8,69.31Z"/><path class="cls-4" d="M96.38,68.84a2.69,2.69,0,0,1-.27.32,3,3,0,0,1,0-.42c0-.42,0-1,.43-.84S96.64,68.51,96.38,68.84Z"/><path class="cls-4" d="M99.93,69c0,.27,0,.48,0,.48s-.24-.2-.35-.31c-.31-.32-.65-.82-.17-1.12S100,68.44,99.93,69Z"/><path class="cls-4" d="M101.56,69.32a1.85,1.85,0,0,1-.72.55l-.25.08-.32-.45a3.19,3.19,0,0,1,.13-.44,2,2,0,0,1,.23-.43A.58.58,0,0,1,101.56,69.32Z"/><path class="cls-7" d="M95.57,69a3.63,3.63,0,0,1,.23.29l-.27.8a3.9,3.9,0,0,1-.35-.28,1.56,1.56,0,0,1,.31-.71Z"/><path class="cls-7" d="M96.38,68.84a2.69,2.69,0,0,1-.27.32,3,3,0,0,1,0-.42A.57.57,0,0,1,96.38,68.84Z"/><path class="cls-4" d="M97.74,72l-.69.3a3.87,3.87,0,0,1-.36-.2c-.72-.44-2.17-1.56-1.2-2.87s1.78,1,2.1,2.19Z"/><path class="cls-7" d="M99.55,69.14a.6.6,0,0,1,.38-.17c0,.27,0,.48,0,.48S99.66,69.25,99.55,69.14Z"/><path class="cls-7" d="M100.84,69.87l-.24.08-.33-.45a3.22,3.22,0,0,1,.14-.44A1.18,1.18,0,0,1,100.84,69.87Z"/><path class="cls-4" d="M99.14,72.84l-.12,0c-2.29.35-.75-.89-.75-.89a3.22,3.22,0,0,0,.24-.25,2.69,2.69,0,0,0,.74-1.33c.07-.75.16-1.45,1-1.24S101.31,72.41,99.14,72.84Z"/><rect class="cls-11" x="94.71" y="78.56" width="4.39" height="1.15"/><rect class="cls-11" x="94.01" y="74.81" width="5.73" height="4.02"/><rect class="cls-7" x="94.71" y="78.56" width="4.39" height="1.15"/><rect class="cls-7" x="94.01" y="74.81" width="5.73" height="4.02"/><rect class="cls-11" x="95" y="78.56" width="4.39" height="1.15"/><path class="cls-7" d="M97.59,71.46c.1.35.15.58.15.58l-.69.3a3.87,3.87,0,0,1-.36-.2A1.74,1.74,0,0,1,97.59,71.46Z"/><path class="cls-7" d="M99.14,72.84l-.12,0c-2.29.35-.75-.89-.75-.89a3.22,3.22,0,0,0,.24-.25A1.53,1.53,0,0,1,99.14,72.84Z"/><path class="cls-4" d="M95.41,75s1.28-4.61,3.08-3.19-.73,3.6-.73,3.6Z"/><circle class="cls-7" cx="96.05" cy="69.99" r="0.14"/><circle class="cls-7" cx="96.04" cy="70.66" r="0.14"/><circle class="cls-7" cx="100.22" cy="70.12" r="0.14"/><circle class="cls-7" cx="96.86" cy="73.57" r="0.14"/><circle class="cls-7" cx="99.92" cy="71.24" r="0.14"/><circle class="cls-7" cx="98.43" cy="72.73" r="0.14"/><circle class="cls-7" cx="96.55" cy="70.28" r="0.14"/><circle class="cls-7" cx="99.83" cy="70.56" r="0.14"/><circle class="cls-7" cx="99.33" cy="71.67" r="0.14"/><circle class="cls-7" cx="97.82" cy="73.46" r="0.14"/><circle class="cls-7" cx="97.51" cy="72.75" r="0.14"/><circle class="cls-7" cx="96.76" cy="71.16" r="0.14"/><rect class="cls-7" x="95" y="78.56" width="4.39" height="0.42"/><rect class="cls-11" x="94.3" y="74.81" width="5.73" height="4.02"/><circle class="cls-7" cx="98.01" cy="74.11" r="0.14"/><circle class="cls-7" cx="97.15" cy="74.29" r="0.14"/><path class="cls-12" d="M75.44,77.3l.06,0Z"/><path class="cls-12" d="M80.55,76.85l.07-.06Z"/><path class="cls-7" d="M75.09,54.15a11.11,11.11,0,0,0-.64,3C74.53,58,75.09,54.15,75.09,54.15Z"/><path class="cls-7" d="M72.49,51.74s1-.21,1.28,0S72.49,51.74,72.49,51.74Z"/><path class="cls-7" d="M72.39,52.27s.07-.18.42,0S72.39,52.27,72.39,52.27Z"/><path class="cls-7" d="M75.59,66a3.86,3.86,0,0,1,.68,0C76.65,66,75.59,66,75.59,66Z"/><path class="cls-7" d="M75.59,66.34a3.86,3.86,0,0,1,.68,0C76.65,66.38,75.59,66.34,75.59,66.34Z"/><path class="cls-7" d="M80.8,65.59a3.86,3.86,0,0,1,.68,0C81.86,65.63,80.8,65.59,80.8,65.59Z"/><path class="cls-7" d="M80.91,65.87a2.66,2.66,0,0,1,.69,0C82,65.9,80.91,65.87,80.91,65.87Z"/></g></g></svg>