<svg xmlns="http://www.w3.org/2000/svg" viewBox="0 0 120 80"><defs><style>.cls-1{fill:#fff;}.cls-2{fill:#ccc;}.cls-3{fill:#2f2e41;}.cls-4{fill:#3f3d56;}.cls-5{fill:#6c63ff;}.cls-6{fill:#e6e6e6;}.cls-7{fill:#e2e2e2;}</style></defs><g id="レイヤー_2" data-name="レイヤー 2"><g id="レイヤー_1-2" data-name="レイヤー 1"><g id="グループ_1153" data-name="グループ 1153"><rect id="長方形_262" data-name="長方形 262" class="cls-1" width="120" height="80"/><g id="undraw_server_cluster_jwwq" data-name="undraw server cluster jwwq"><path id="パス_2981" data-name="パス 2981" class="cls-2" d="M60.08,67.66a28.65,28.65,0,0,1-28-23.26A29,29,0,0,1,49.15,12.06,28.38,28.38,0,0,1,83.83,22.71,29.17,29.17,0,0,1,80.27,59.2a28.17,28.17,0,0,1-20.19,8.46Zm0-57.58a28.68,28.68,0,1,0,28.34,29v-.34A28.54,28.54,0,0,0,60.08,10.08Z"/><rect id="長方形_216" data-name="長方形 216" class="cls-3" x="48.62" y="41.7" width="22.7" height="30.5"/><rect id="長方形_217" data-name="長方形 217" class="cls-4" x="44.72" y="41.82" width="30.5" height="12.11"/><rect id="長方形_218" data-name="長方形 218" class="cls-4" x="44.72" y="54.8" width="30.5" height="12.11"/><rect id="長方形_219" data-name="長方形 219" class="cls-4" x="44.72" y="67.78" width="30.5" height="12.11"/><rect id="長方形_220" data-name="長方形 220" class="cls-5" x="44.72" y="47" width="30.5" height="1.86"/><rect id="長方形_221" data-name="長方形 221" class="cls-5" x="44.72" y="60.04" width="30.5" height="1.86"/><rect id="長方形_222" data-name="長方形 222" class="cls-5" x="44.72" y="72.91" width="30.5" height="1.86"/><circle id="楕円形_85" data-name="楕円形 85" class="cls-5" cx="68.97" cy="43.76" r="0.7"/><circle id="楕円形_86" data-name="楕円形 86" class="cls-5" cx="71.33" cy="43.76" r="0.7"/><circle id="楕円形_87" data-name="楕円形 87" class="cls-5" cx="73.7" cy="43.76" r="0.7"/><circle id="楕円形_88" data-name="楕円形 88" class="cls-5" cx="68.97" cy="56.58" r="0.7"/><circle id="楕円形_89" data-name="楕円形 89" class="cls-5" cx="71.33" cy="56.58" r="0.7"/><circle id="楕円形_90" data-name="楕円形 90" class="cls-5" cx="73.7" cy="56.58" r="0.7"/><circle id="楕円形_91" data-name="楕円形 91" class="cls-5" cx="68.97" cy="69.06" r="0.7"/><circle id="楕円形_92" data-name="楕円形 92" class="cls-5" cx="71.33" cy="69.06" r="0.7"/><circle id="楕円形_93" data-name="楕円形 93" class="cls-5" cx="73.7" cy="69.06" r="0.7"/><rect id="長方形_223" data-name="長方形 223" class="cls-4" x="10" y="79.77" width="99.94" height="0.23"/><path id="パス_2982" data-name="パス 2982" class="cls-6" d="M37.55,30.14V51.79a1.71,1.71,0,0,1-1.71,1.7H27.42a1.71,1.71,0,0,1-1.71-1.7V30.14a1.71,1.71,0,0,1,1.71-1.71h1a.81.81,0,0,0,.45,1.06.8.8,0,0,0,.3.06H34a.82.82,0,0,0,.82-.82.77.77,0,0,0-.06-.3h1.09a1.71,1.71,0,0,1,1.71,1.71Z"/><rect id="長方形_224" data-name="長方形 224" class="cls-1" x="26.26" y="32.61" width="10.71" height="14.9"/><rect id="長方形_225" data-name="長方形 225" class="cls-6" x="29.24" y="42.76" width="4.28" height="0.24"/><rect id="長方形_226" data-name="長方形 226" class="cls-5" x="29.22" y="43.62" width="6.61" height="0.24"/><rect id="長方形_227" data-name="長方形 227" class="cls-6" x="29.23" y="44.44" width="5.19" height="0.24"/><rect id="長方形_228" data-name="長方形 228" class="cls-6" x="29.24" y="45.26" width="3.05" height="0.24"/><rect id="長方形_229" data-name="長方形 229" class="cls-6" x="29.23" y="46.07" width="4.58" height="0.24"/><rect id="長方形_230" data-name="長方形 230" class="cls-6" x="27.99" y="42.68" width="0.49" height="0.49"/><rect id="長方形_231" data-name="長方形 231" class="cls-5" x="27.99" y="43.5" width="0.49" height="0.49"/><rect id="長方形_232" data-name="長方形 232" class="cls-6" x="27.99" y="44.32" width="0.49" height="0.49"/><rect id="長方形_233" data-name="長方形 233" class="cls-6" x="27.99" y="45.13" width="0.49" height="0.49"/><rect id="長方形_234" data-name="長方形 234" class="cls-6" x="27.99" y="45.95" width="0.49" height="0.49"/><rect id="長方形_235" data-name="長方形 235" class="cls-6" x="29.41" y="34.59" width="4.31" height="4.31"/><rect id="長方形_236" data-name="長方形 236" class="cls-6" x="45.66" y="0.02" width="28.63" height="18.33"/><rect id="長方形_237" data-name="長方形 237" class="cls-1" x="47.83" y="5.14" width="23.73" height="8.97"/><rect id="長方形_238" data-name="長方形 238" class="cls-6" x="52.32" y="6.7" width="5.7" height="0.32"/><rect id="長方形_239" data-name="長方形 239" class="cls-5" x="52.26" y="7.89" width="8.81" height="0.32"/><rect id="長方形_240" data-name="長方形 240" class="cls-6" x="52.3" y="9.02" width="6.92" height="0.32"/><rect id="長方形_241" data-name="長方形 241" class="cls-6" x="52.34" y="10.15" width="4.07" height="0.32"/><rect id="長方形_242" data-name="長方形 242" class="cls-6" x="52.31" y="11.27" width="6.1" height="0.32"/><rect id="長方形_243" data-name="長方形 243" class="cls-6" x="49.9" y="6.61" width="0.65" height="0.65"/><rect id="長方形_244" data-name="長方形 244" class="cls-5" x="49.9" y="7.73" width="0.65" height="0.65"/><rect id="長方形_245" data-name="長方形 245" class="cls-6" x="49.9" y="8.86" width="0.65" height="0.65"/><rect id="長方形_246" data-name="長方形 246" class="cls-6" x="49.9" y="9.98" width="0.65" height="0.65"/><rect id="長方形_247" data-name="長方形 247" class="cls-6" x="49.9" y="11.11" width="0.65" height="0.65"/><rect id="長方形_248" data-name="長方形 248" class="cls-6" x="64.3" y="6.27" width="5.83" height="5.83"/><rect id="長方形_249" data-name="長方形 249" class="cls-5" x="45.65" width="28.63" height="1.22"/><circle id="楕円形_94" data-name="楕円形 94" class="cls-1" cx="47" cy="0.62" r="0.24"/><circle id="楕円形_95" data-name="楕円形 95" class="cls-1" cx="47.83" cy="0.62" r="0.24"/><circle id="楕円形_96" data-name="楕円形 96" class="cls-1" cx="48.66" cy="0.62" r="0.24"/><rect id="長方形_250" data-name="長方形 250" class="cls-6" x="85.4" y="33.13" width="6.99" height="3.61"/><rect id="長方形_251" data-name="長方形 251" class="cls-6" x="85.4" y="45.6" width="6.99" height="3.61"/><circle id="楕円形_97" data-name="楕円形 97" class="cls-6" cx="88.84" cy="41.16" r="5.82"/><circle id="楕円形_98" data-name="楕円形 98" class="cls-1" cx="88.87" cy="41.17" r="4.54"/><rect id="長方形_252" data-name="長方形 252" class="cls-7" x="87.44" y="39.97" width="3.52" height="0.2"/><rect id="長方形_253" data-name="長方形 253" class="cls-5" x="87.38" y="40.68" width="5.45" height="0.2"/><rect id="長方形_254" data-name="長方形 254" class="cls-7" x="87.41" y="41.35" width="4.28" height="0.2"/><rect id="長方形_255" data-name="長方形 255" class="cls-7" x="87.46" y="42.03" width="2.52" height="0.2"/><rect id="長方形_256" data-name="長方形 256" class="cls-7" x="87.43" y="42.7" width="3.77" height="0.2"/><rect id="長方形_257" data-name="長方形 257" class="cls-7" x="85.98" y="39.91" width="0.4" height="0.4"/><rect id="長方形_258" data-name="長方形 258" class="cls-5" x="85.98" y="40.58" width="0.4" height="0.4"/><rect id="長方形_259" data-name="長方形 259" class="cls-7" x="85.98" y="41.25" width="0.4" height="0.4"/><rect id="長方形_260" data-name="長方形 260" class="cls-7" x="85.98" y="41.92" width="0.4" height="0.4"/><rect id="長方形_261" data-name="長方形 261" class="cls-7" x="85.98" y="42.6" width="0.4" height="0.4"/></g></g></g></g></svg>