<svg xmlns="http://www.w3.org/2000/svg" viewBox="0 0 48 48"><defs><style>.cls-1{fill:none;}.cls-2{fill:#212121;}.cls-3{fill:#4d45d5;}</style></defs><g id="レイヤー_2" data-name="レイヤー 2"><g id="LINE_LOGO" data-name="LINE LOGO"><g id="コンポーネント_26_19" data-name="コンポーネント 26 19"><rect id="長方形_150" data-name="長方形 150" class="cls-1" width="48" height="48"/><path id="iconmonstr-bell-2" class="cls-2" d="M27,33a3.06,3.06,0,0,1-3,3,3.12,3.12,0,0,1-3-3Zm.14-17.06a2.09,2.09,0,0,1-1-1.82h0a2.1,2.1,0,0,0-4.19-.24,1,1,0,0,0,0,.24h0a2.14,2.14,0,0,1-1,1.83c-4.68,2.7-2,11.71-6.87,13.3V31H34V29.25C29.12,27.66,31.81,18.65,27.14,15.94ZM24,13a1,1,0,1,1-1,1A1,1,0,0,1,24,13ZM17.55,29a14.52,14.52,0,0,0,2-5.82c.45-2.39.87-4.64,2.36-5.5a4.17,4.17,0,0,1,4.26,0c1.49.86,1.91,3.12,2.36,5.5a14.52,14.52,0,0,0,2,5.82Z"/></g><circle id="楕円形_13" data-name="楕円形 13" class="cls-3" cx="36" cy="36" r="4"/></g></g></svg>