<svg xmlns="http://www.w3.org/2000/svg" viewBox="0 0 216 216"><defs><style>.cls-1{fill:#3011ab;}.cls-2{fill:#fff;}</style></defs><g id="レイヤー_2" data-name="レイヤー 2"><g id="レイヤー_1-2" data-name="レイヤー 1"><rect class="cls-1" width="216" height="216" rx="32"/><path class="cls-2" d="M82.25,176.33l37-64.16a8.43,8.43,0,0,0,0-8.43L82.15,39.66A8.43,8.43,0,0,1,89.44,27h0a8.43,8.43,0,0,1,7.31,4.21l41.95,72.52a8.41,8.41,0,0,1,0,8.43L96.88,184.75A8.47,8.47,0,0,1,89.57,189h0A8.44,8.44,0,0,1,82.25,176.33Z"/><path class="cls-2" d="M113.43,176.36l37-64.15a8.43,8.43,0,0,0,0-8.43l-37.07-64.1A8.44,8.44,0,0,1,120.61,27h0a8.45,8.45,0,0,1,7.31,4.21l42,72.52a8.41,8.41,0,0,1,0,8.43L128,184.78a8.41,8.41,0,0,1-7.3,4.22h0A8.43,8.43,0,0,1,113.43,176.36Z"/><rect class="cls-2" x="54" y="54" width="18" height="112" rx="9"/></g></g></svg>