<svg xmlns="http://www.w3.org/2000/svg" viewBox="0 0 120 80"><defs><style>.cls-1{fill:#fff;}.cls-10,.cls-2,.cls-4{fill:#6c63ff;}.cls-2,.cls-7{opacity:0.1;}.cls-10,.cls-2,.cls-5,.cls-7{isolation:isolate;}.cls-3{fill:none;stroke:#535461;stroke-miterlimit:10;stroke-width:2px;}.cls-5{opacity:0.25;}.cls-6{fill:#c8cad7;}.cls-8{fill:#474157;}.cls-9{fill:#ededf4;}.cls-10{opacity:0.2;}.cls-11{fill:#d4dfec;}.cls-12{fill:#a1616a;}</style></defs><g id="レイヤー_2" data-name="レイヤー 2"><g id="レイヤー_1-2" data-name="レイヤー 1"><g id="グループ_1156" data-name="グループ 1156"><rect id="長方形_289" data-name="長方形 289" class="cls-1" width="120" height="80"/><g id="undraw_wireframing_nxyi" data-name="undraw wireframing nxyi"><path id="パス_2983" data-name="パス 2983" class="cls-2" d="M114.33,19.77a23.25,23.25,0,0,0-4.48-6l-62.21-.52L98.86,7.13A33.69,33.69,0,0,0,88.47,5.39a33.47,33.47,0,0,0-34.8-1A33.26,33.26,0,0,0,40.36,1.68C26.54,1.68,15,9.78,12.44,20.51Z"/><path id="パス_2984" data-name="パス 2984" class="cls-2" d="M116.52,28.8a19.8,19.8,0,0,0-1.94-8.49L6.77,29.88a20.59,20.59,0,0,0-2.53,5.39l33.39,4.21L3.48,42.54c1,12.15,13.35,21.75,28.4,21.75a32,32,0,0,0,19.56-6.4,31.91,31.91,0,0,0,19.72,6.52c11.36,0,21.17-5.47,25.74-13.38,9.16-2.46,16.27-8.63,18.71-16.35L73.39,29.15h43.13Z"/><path id="パス_2985" data-name="パス 2985" class="cls-3" d="M31.83,55.36s-4.62-6.67-3.84-13a12.26,12.26,0,0,0-1.48-7.64,21.31,21.31,0,0,0-2.17-3.1"/><path id="パス_2986" data-name="パス 2986" class="cls-4" d="M24.81,27.67c.3.91-.47,4.08-.47,4.08s-2.51-2.09-2.81-3a1.73,1.73,0,0,1,3.28-1.09Z"/><path id="パス_2987" data-name="パス 2987" class="cls-4" d="M29.18,31.8c-.24.92-2.61,3.16-2.61,3.16s-1-3.11-.73-4a1.73,1.73,0,1,1,3.34.87Z"/><path id="パス_2988" data-name="パス 2988" class="cls-4" d="M31.9,40.42c-.67.67-3.85,1.41-3.85,1.41s.73-3.18,1.4-3.85a1.73,1.73,0,0,1,2.48,2.4l0,0Z"/><path id="パス_2989" data-name="パス 2989" class="cls-4" d="M32.49,47.41c-.55.78-3.55,2-3.55,2s.18-3.25.73-4a1.73,1.73,0,0,1,2.82,2Z"/><path id="パス_2990" data-name="パス 2990" class="cls-4" d="M23.19,36.28c.86.42,4.1.07,4.1.07s-1.74-2.76-2.6-3.18a1.73,1.73,0,0,0-1.5,3.11Z"/><path id="パス_2991" data-name="パス 2991" class="cls-4" d="M24,44.44c.94.14,3.93-1.16,3.93-1.16S25.43,41.16,24.49,41A1.73,1.73,0,0,0,24,44.44Z"/><path id="パス_2992" data-name="パス 2992" class="cls-4" d="M25.84,52.27c.9.3,4.07-.48,4.07-.48s-2.09-2.5-3-2.8a1.73,1.73,0,0,0-1.08,3.28Z"/><path id="パス_2993" data-name="パス 2993" class="cls-5" d="M24.81,27.67c.3.91-.47,4.08-.47,4.08s-2.51-2.09-2.81-3a1.73,1.73,0,0,1,3.28-1.09Z"/><path id="パス_2994" data-name="パス 2994" class="cls-5" d="M29.18,31.8c-.24.92-2.61,3.16-2.61,3.16s-1-3.11-.73-4a1.73,1.73,0,1,1,3.34.87Z"/><path id="パス_2995" data-name="パス 2995" class="cls-5" d="M31.9,40.42c-.67.67-3.85,1.41-3.85,1.41s.73-3.18,1.4-3.85a1.73,1.73,0,0,1,2.48,2.4l0,0Z"/><path id="パス_2996" data-name="パス 2996" class="cls-5" d="M32.49,47.41c-.55.78-3.55,2-3.55,2s.18-3.25.73-4a1.73,1.73,0,0,1,2.82,2Z"/><path id="パス_2997" data-name="パス 2997" class="cls-5" d="M23.19,36.28c.86.42,4.1.07,4.1.07s-1.74-2.76-2.6-3.18a1.73,1.73,0,0,0-1.5,3.11Z"/><path id="パス_2998" data-name="パス 2998" class="cls-5" d="M24,44.44c.94.14,3.93-1.16,3.93-1.16S25.43,41.16,24.49,41A1.73,1.73,0,0,0,24,44.44Z"/><path id="パス_2999" data-name="パス 2999" class="cls-5" d="M25.84,52.27c.9.3,4.07-.48,4.07-.48s-2.09-2.5-3-2.8a1.73,1.73,0,0,0-1.08,3.28Z"/><path id="パス_3000" data-name="パス 3000" class="cls-3" d="M31.81,55.09S24.88,50.86,23,44.79a12.26,12.26,0,0,0-4.45-6.38,20,20,0,0,0-3.24-1.95"/><path id="パス_3001" data-name="パス 3001" class="cls-4" d="M14.17,32.63c.65.71,1.22,3.92,1.22,3.92s-3.13-.89-3.77-1.6a1.72,1.72,0,0,1,2.55-2.32Z"/><path id="パス_3002" data-name="パス 3002" class="cls-4" d="M19.84,34.63c.16.94-1.1,3.95-1.1,3.95s-2.15-2.45-2.31-3.4a1.73,1.73,0,0,1,3.41-.55Z"/><path id="パス_3003" data-name="パス 3003" class="cls-4" d="M25.82,41.4c-.35.89-2.95,2.86-2.95,2.86s-.62-3.2-.28-4.1a1.73,1.73,0,1,1,3.24,1.2v0Z"/><path id="パス_3004" data-name="パス 3004" class="cls-4" d="M29.19,47.55c-.19.94-2.42,3.31-2.42,3.31s-1.16-3-1-4a1.73,1.73,0,0,1,3.39.67Z"/><path id="パス_3005" data-name="パス 3005" class="cls-4" d="M16.17,41.16c1,0,3.78-1.6,3.78-1.6s-2.7-1.83-3.66-1.86a1.73,1.73,0,0,0-.2,3.45h.08Z"/><path id="パス_3006" data-name="パス 3006" class="cls-4" d="M20.21,48.29c.91-.25,3.12-2.66,3.12-2.66s-3.13-.93-4-.67a1.73,1.73,0,0,0,.83,3.36l.09,0Z"/><path id="パス_3007" data-name="パス 3007" class="cls-4" d="M25.07,54.7c.95-.1,3.53-2.09,3.53-2.09s-2.92-1.45-3.87-1.35A1.73,1.73,0,1,0,25,54.7Z"/><ellipse id="楕円形_99" data-name="楕円形 99" class="cls-2" cx="60.07" cy="73.49" rx="17.91" ry="1.06"/><path id="パス_3008" data-name="パス 3008" class="cls-6" d="M68.3,71.62v.64h-19v-.52a6.22,6.22,0,0,0,.43-11.51H68.18A6.24,6.24,0,0,0,65.1,68.5a6.34,6.34,0,0,0,3.2,3.13Z"/><path id="パス_3009" data-name="パス 3009" class="cls-7" d="M68.18,60.21a6.26,6.26,0,0,0-3.45,4.14H53.21a6.23,6.23,0,0,0-3.45-4.14Z"/><path id="パス_3010" data-name="パス 3010" class="cls-6" d="M27.61,56.94v3.6a3.44,3.44,0,0,0,3.25,3.6H86.68a3.44,3.44,0,0,0,3.25-3.6v-3.6Z"/><path id="パス_3011" data-name="パス 3011" class="cls-7" d="M68.3,71.62v.64h-19v-.52A6.28,6.28,0,0,0,50.8,71H67.14a6.32,6.32,0,0,0,1.16.66Z"/><rect id="長方形_263" data-name="長方形 263" class="cls-6" x="43.07" y="71.16" width="31.51" height="1.9" rx="0.95"/><path id="パス_3012" data-name="パス 3012" class="cls-8" d="M89.93,17.46a3.24,3.24,0,0,0-3.25-3.25H30.86a3.25,3.25,0,0,0-3.25,3.25h0V57.62H89.93Z"/><rect id="長方形_264" data-name="長方形 264" class="cls-9" x="29.31" y="17.31" width="58.92" height="37.71" rx="16"/><circle id="楕円形_101" data-name="楕円形 101" class="cls-1" cx="58.77" cy="15.75" r="0.75"/><circle id="楕円形_102" data-name="楕円形 102" class="cls-1" cx="58.77" cy="60.69" r="1.85"/><path id="パス_3013" data-name="パス 3013" class="cls-6" d="M88.23,18.9H29.31a1.6,1.6,0,0,1,1.6-1.6H86.63a1.6,1.6,0,0,1,1.6,1.6Z"/><circle id="楕円形_103" data-name="楕円形 103" class="cls-9" cx="30.91" cy="18.1" r="0.4"/><circle id="楕円形_104" data-name="楕円形 104" class="cls-9" cx="32.11" cy="18.1" r="0.4"/><circle id="楕円形_105" data-name="楕円形 105" class="cls-9" cx="33.31" cy="18.1" r="0.4"/><rect id="長方形_265" data-name="長方形 265" class="cls-4" x="31.51" y="20.25" width="15.1" height="0.9"/><rect id="長方形_266" data-name="長方形 266" class="cls-4" x="31.51" y="46.58" width="15.1" height="0.9"/><rect id="長方形_267" data-name="長方形 267" class="cls-10" x="31.51" y="48.58" width="28.01" height="0.9"/><rect id="長方形_268" data-name="長方形 268" class="cls-10" x="31.51" y="49.88" width="28.01" height="0.9"/><rect id="長方形_269" data-name="長方形 269" class="cls-10" x="31.51" y="51.19" width="28.01" height="0.9"/><rect id="長方形_270" data-name="長方形 270" class="cls-10" x="31.51" y="22.66" width="27.81" height="15.1"/><rect id="長方形_271" data-name="長方形 271" class="cls-10" x="31.81" y="39.17" width="6.5" height="6"/><rect id="長方形_272" data-name="長方形 272" class="cls-10" x="52.82" y="39.17" width="6.5" height="6"/><rect id="長方形_273" data-name="長方形 273" class="cls-10" x="42.17" y="39.17" width="6.5" height="6"/><rect id="長方形_274" data-name="長方形 274" class="cls-10" x="65.26" y="27.06" width="19.14" height="14.09"/><rect id="長方形_275" data-name="長方形 275" class="cls-9" x="67.27" y="29.91" width="15.1" height="0.9"/><rect id="長方形_276" data-name="長方形 276" class="cls-9" x="67.27" y="31.78" width="15.1" height="0.9"/><rect id="長方形_277" data-name="長方形 277" class="cls-9" x="67.27" y="33.65" width="15.1" height="0.9"/><rect id="長方形_278" data-name="長方形 278" class="cls-9" x="67.27" y="35.52" width="15.1" height="0.9"/><rect id="長方形_279" data-name="長方形 279" class="cls-9" x="67.27" y="37.39" width="15.1" height="0.9"/><rect id="長方形_280" data-name="長方形 280" class="cls-4" x="67.59" y="42.75" width="14.47" height="2.53"/><rect id="長方形_281" data-name="長方形 281" class="cls-4" x="66.82" y="51.2" width="9.7" height="1.7"/><ellipse id="楕円形_106" data-name="楕円形 106" class="cls-2" cx="29.33" cy="77.62" rx="2.86" ry="0.29"/><ellipse id="楕円形_107" data-name="楕円形 107" class="cls-2" cx="87.9" cy="73.47" rx="1.72" ry="0.17"/><path id="パス_3014" data-name="パス 3014" class="cls-4" d="M30.33,72.84s-3.73,1.93-1.8,4.2a.73.73,0,0,0,.71.46s-.11-.19.3-.35a1.71,1.71,0,0,0,.4-.21,1,1,0,0,0,.36-.48h0a3.35,3.35,0,0,0,.17-2.91s.08-.54,0-.62l-.46.61a1.21,1.21,0,0,1,.52.77s-.48-.77-.59-.68-.23.34-.23.34a2,2,0,0,1,.88,1.26s-.46-1-1-1.14l-.28.5a2.17,2.17,0,0,1,1,1.35s-.51-1-1-1.23l-.2.53s.85.54.93,1.22c0,0-.72-1.13-1-1.1a2.44,2.44,0,0,0-.14.65s.6.4.61.8c0,0-.56-.7-.64-.65A3,3,0,0,0,29,77.23a2.1,2.1,0,0,1-.24-1.07,1.1,1.1,0,0,0-.36.58s-.16-.39.37-.75a2.6,2.6,0,0,1,.11-.62,2.62,2.62,0,0,0-.82.62s.09-.51.87-.76l.2-.54a3.82,3.82,0,0,0-1,.62s.18-.51,1.08-.75l.27-.5a4.09,4.09,0,0,0-1,.5,1.71,1.71,0,0,1,1.11-.64l.22-.31-.64.24c-.14.06-.17,0-.17,0a1.79,1.79,0,0,1,.9-.4A4.62,4.62,0,0,0,30.33,72.84Z"/><ellipse id="楕円形_108" data-name="楕円形 108" class="cls-2" cx="20.42" cy="73.2" rx="2.19" ry="0.22"/><path id="パス_3015" data-name="パス 3015" class="cls-4" d="M21.19,69.54S18.33,71,19.81,72.75a.54.54,0,0,0,.54.36s-.08-.15.22-.27a1.51,1.51,0,0,0,.31-.16.74.74,0,0,0,.28-.37h0a2.57,2.57,0,0,0,.13-2.23,1.49,1.49,0,0,0,0-.48l-.35.48a1,1,0,0,1,.4.59s-.37-.59-.46-.52l-.17.26a1.56,1.56,0,0,1,.67,1s-.35-.77-.73-.88l-.21.39a1.69,1.69,0,0,1,.76,1s-.4-.79-.81-.94l-.15.4s.65.42.71.94c0,0-.55-.87-.74-.84a1.72,1.72,0,0,0-.11.5s.46.31.47.61c0,0-.43-.54-.49-.5a2.34,2.34,0,0,0,.1.83,1.71,1.71,0,0,1-.19-.83.88.88,0,0,0-.27.44s-.13-.3.28-.57a1.86,1.86,0,0,1,.09-.47,1.93,1.93,0,0,0-.63.47s.07-.39.66-.58l.16-.42a2.83,2.83,0,0,0-.78.48s.13-.39.82-.58l.21-.38a3.2,3.2,0,0,0-.79.38,1.35,1.35,0,0,1,.85-.49l.17-.23s-.39.13-.49.18-.13,0-.13,0a1.34,1.34,0,0,1,.69-.32A4.34,4.34,0,0,0,21.19,69.54Z"/><path id="パス_3016" data-name="パス 3016" class="cls-4" d="M88.68,70.58s-2.23,1.16-1.08,2.51a.43.43,0,0,0,.43.28s-.07-.12.17-.21a.7.7,0,0,0,.24-.13.54.54,0,0,0,.22-.28h0a2,2,0,0,0,.1-1.75,1.53,1.53,0,0,0,0-.37l-.28.37a.77.77,0,0,1,.32.47s-.3-.47-.36-.41l-.13.2a1.22,1.22,0,0,1,.52.75s-.27-.6-.57-.68l-.16.31a1.28,1.28,0,0,1,.59.81s-.31-.62-.62-.74L88,72s.51.32.56.73c0,0-.43-.68-.58-.66a2.74,2.74,0,0,0-.09.39s.37.24.37.48c0,0-.33-.42-.38-.39a1.53,1.53,0,0,0,.08.64,1.21,1.21,0,0,1-.15-.64.68.68,0,0,0-.21.34s-.1-.23.22-.44a2.5,2.5,0,0,1,.06-.38,1.47,1.47,0,0,0-.48.38s.05-.31.51-.46L88,71.7a2.26,2.26,0,0,0-.61.37s.1-.3.65-.45l.16-.3a2.53,2.53,0,0,0-.62.3,1.08,1.08,0,0,1,.67-.39l.13-.18-.38.14c-.09,0-.1,0-.1,0a1.07,1.07,0,0,1,.53-.24A2.7,2.7,0,0,0,88.68,70.58Z"/><ellipse id="楕円形_109" data-name="楕円形 109" class="cls-2" cx="97.12" cy="79.65" rx="4.18" ry="0.35"/><path id="パス_3017" data-name="パス 3017" class="cls-4" d="M100.46,68.63a2.55,2.55,0,0,0-.23.43.56.56,0,0,1,0,.12l-.08,0a1,1,0,0,0-.35,0V69c0-.53-.05-1.26-.55-1s-.14.8.17,1.12a.6.6,0,0,1,.08.08c-.28.2-.33.67-.38,1.16a2.7,2.7,0,0,1-.74,1.34l-.08.08a1,1,0,0,0-.8-.21.93.93,0,0,0,0-.13c-.22-.81-.69-2.21-1.28-2.52l.08-.1c.25-.33.53-.82.12-.94s-.46.42-.44.83c0,.05,0,.1,0,.15a.61.61,0,0,0-.43.21L95.41,69c-.34-.4-1-1-1.15-.56s.37,1,.76,1.37l0,0c-.26,1,.87,1.91,1.48,2.28l.08,0A9.36,9.36,0,0,0,95.24,75l2.36.42s1.56-1.35,1.36-2.61h0a2.38,2.38,0,0,0,1.69-2.91l0-.06h0a1.74,1.74,0,0,0,.72-.54.58.58,0,0,0-.93-.7Z"/><path id="パス_3018" data-name="パス 3018" class="cls-7" d="M100.46,68.63a2.55,2.55,0,0,0-.23.43.56.56,0,0,1,0,.12l-.08,0a1,1,0,0,0-.35,0V69c0-.53-.05-1.26-.55-1s-.14.8.17,1.12a.6.6,0,0,1,.08.08c-.28.2-.33.67-.38,1.16a2.7,2.7,0,0,1-.74,1.34l-.08.08a1,1,0,0,0-.8-.21.93.93,0,0,0,0-.13c-.22-.81-.69-2.21-1.28-2.52l.08-.1c.25-.33.53-.82.12-.94s-.46.42-.44.83c0,.05,0,.1,0,.15a.61.61,0,0,0-.43.21L95.41,69c-.34-.4-1-1-1.15-.56s.37,1,.76,1.37l0,0c-.26,1,.87,1.91,1.48,2.28l.08,0A9.36,9.36,0,0,0,95.24,75l2.36.42s1.56-1.35,1.36-2.61h0a2.38,2.38,0,0,0,1.69-2.91l0-.06h0a1.74,1.74,0,0,0,.72-.54.58.58,0,0,0-.93-.7Z"/><path id="パス_3019" data-name="パス 3019" class="cls-4" d="M95.78,69.31l-.28.8s-.15-.11-.34-.28c-.39-.33-.94-.92-.76-1.36s.81.15,1.15.55Z"/><path id="パス_3020" data-name="パス 3020" class="cls-4" d="M96.36,68.85a2.69,2.69,0,0,1-.27.32c0-.14,0-.28,0-.42,0-.42,0-1,.43-.84S96.61,68.52,96.36,68.85Z"/><path id="パス_3021" data-name="パス 3021" class="cls-4" d="M99.91,69c0,.26,0,.48,0,.48l-.34-.31c-.31-.32-.66-.82-.17-1.12S99.92,68.45,99.91,69Z"/><path id="パス_3022" data-name="パス 3022" class="cls-4" d="M101.53,69.33a1.85,1.85,0,0,1-.72.55l-.24.08-.33-.45a3.22,3.22,0,0,1,.14-.44,1.59,1.59,0,0,1,.22-.43.59.59,0,0,1,.82-.08A.57.57,0,0,1,101.53,69.33Z"/><path id="パス_3023" data-name="パス 3023" class="cls-7" d="M95.55,69c.14.16.23.28.23.28l-.28.8a3.39,3.39,0,0,1-.34-.27,1.52,1.52,0,0,1,.31-.71A.39.39,0,0,1,95.55,69Z"/><path id="パス_3024" data-name="パス 3024" class="cls-7" d="M96.36,68.85l-.27.32c0-.14,0-.28,0-.43A.59.59,0,0,1,96.36,68.85Z"/><path id="パス_3025" data-name="パス 3025" class="cls-4" d="M97.71,72.05l-.68.3a3.62,3.62,0,0,1-.37-.21c-.71-.44-2.16-1.55-1.2-2.86s1.78,1,2.1,2.19C97.66,71.81,97.71,72.05,97.71,72.05Z"/><path id="パス_3026" data-name="パス 3026" class="cls-7" d="M99.53,69.15a.58.58,0,0,1,.38-.17c0,.26,0,.48,0,.48Z"/><path id="パス_3027" data-name="パス 3027" class="cls-7" d="M100.81,69.87a1,1,0,0,1-.24.09l-.32-.45a3.33,3.33,0,0,1,.13-.45A1.19,1.19,0,0,1,100.81,69.87Z"/><path id="パス_3028" data-name="パス 3028" class="cls-4" d="M99.11,72.85l-.11,0c-2.3.34-.76-.89-.76-.89l.24-.25a2.7,2.7,0,0,0,.74-1.34c.08-.74.16-1.44,1-1.23S101.28,72.41,99.11,72.85Z"/><rect id="長方形_282" data-name="長方形 282" class="cls-11" x="94.69" y="78.56" width="4.38" height="1.15"/><rect id="長方形_283" data-name="長方形 283" class="cls-11" x="93.99" y="74.81" width="5.73" height="4.02"/><rect id="長方形_284" data-name="長方形 284" class="cls-7" x="94.69" y="78.56" width="4.38" height="1.15"/><rect id="長方形_285" data-name="長方形 285" class="cls-7" x="93.99" y="74.81" width="5.73" height="4.02"/><rect id="長方形_286" data-name="長方形 286" class="cls-11" x="94.97" y="78.56" width="4.38" height="1.15"/><path id="パス_3029" data-name="パス 3029" class="cls-7" d="M97.56,71.47c.1.34.15.58.15.58l-.68.3a3.62,3.62,0,0,1-.37-.21A1.82,1.82,0,0,1,97.56,71.47Z"/><path id="パス_3030" data-name="パス 3030" class="cls-7" d="M99.11,72.85l-.11,0c-2.3.34-.76-.89-.76-.89l.24-.25A1.49,1.49,0,0,1,99.11,72.85Z"/><path id="パス_3031" data-name="パス 3031" class="cls-4" d="M95.38,75s1.29-4.6,3.09-3.18-.73,3.6-.73,3.6Z"/><circle id="楕円形_110" data-name="楕円形 110" class="cls-7" cx="96.03" cy="70" r="0.14"/><circle id="楕円形_111" data-name="楕円形 111" class="cls-7" cx="96.02" cy="70.67" r="0.14"/><circle id="楕円形_112" data-name="楕円形 112" class="cls-7" cx="100.19" cy="70.13" r="0.14"/><circle id="楕円形_113" data-name="楕円形 113" class="cls-7" cx="96.83" cy="73.58" r="0.14"/><circle id="楕円形_114" data-name="楕円形 114" class="cls-7" cx="99.89" cy="71.25" r="0.14"/><circle id="楕円形_115" data-name="楕円形 115" class="cls-7" cx="98.41" cy="72.74" r="0.14"/><circle id="楕円形_116" data-name="楕円形 116" class="cls-7" cx="96.52" cy="70.29" r="0.14"/><circle id="楕円形_117" data-name="楕円形 117" class="cls-7" cx="99.8" cy="70.56" r="0.14"/><circle id="楕円形_118" data-name="楕円形 118" class="cls-7" cx="99.31" cy="71.68" r="0.14"/><circle id="楕円形_119" data-name="楕円形 119" class="cls-7" cx="97.79" cy="73.47" r="0.14"/><circle id="楕円形_120" data-name="楕円形 120" class="cls-7" cx="97.48" cy="72.76" r="0.14"/><circle id="楕円形_121" data-name="楕円形 121" class="cls-7" cx="96.74" cy="71.16" r="0.14"/><rect id="長方形_287" data-name="長方形 287" class="cls-7" x="94.97" y="78.56" width="4.38" height="0.42"/><rect id="長方形_288" data-name="長方形 288" class="cls-11" x="94.28" y="74.81" width="5.73" height="4.02"/><circle id="楕円形_122" data-name="楕円形 122" class="cls-7" cx="97.99" cy="74.12" r="0.14"/><circle id="楕円形_123" data-name="楕円形 123" class="cls-7" cx="97.12" cy="74.3" r="0.14"/><path id="パス_3034" data-name="パス 3034" class="cls-12" d="M75.43,77.3l.06,0Z"/><path id="パス_3036" data-name="パス 3036" class="cls-12" d="M80.53,76.85l.08,0Z"/><path id="パス_3077" data-name="パス 3077" class="cls-7" d="M75.58,66a3.86,3.86,0,0,1,.68,0C76.64,66,75.58,66,75.58,66Z"/><path id="パス_3078" data-name="パス 3078" class="cls-7" d="M75.58,66.35a3.86,3.86,0,0,1,.68,0C76.64,66.38,75.58,66.35,75.58,66.35Z"/><path id="パス_3079" data-name="パス 3079" class="cls-7" d="M80.78,65.6a4,4,0,0,1,.69,0C81.85,65.64,80.78,65.6,80.78,65.6Z"/><path id="パス_3080" data-name="パス 3080" class="cls-7" d="M80.9,65.88a2.66,2.66,0,0,1,.69,0C82,65.91,80.9,65.88,80.9,65.88Z"/></g></g></g></g></svg>