<svg xmlns="http://www.w3.org/2000/svg" viewBox="0 0 120 80"><defs><style>.cls-1{fill:#fff;}.cls-2{fill:#2f2e41;}.cls-3{fill:#f5b7b8;}.cls-4{fill:#f2f2f2;}.cls-5{fill:#6a5faa;}.cls-6{fill:#ccc;}.cls-7{opacity:0.1;isolation:isolate;}.cls-8{fill:#3f3d56;}.cls-9{fill:#f56484;}.cls-10{fill:#9f616a;}</style></defs><g id="レイヤー_2" data-name="レイヤー 2"><g id="レイヤー_1-2" data-name="レイヤー 1"><g id="グループ_1159" data-name="グループ 1159"><rect id="長方形_290" data-name="長方形 290" class="cls-1" width="120" height="80"/><g id="undraw_building_websites_i78t" data-name="undraw building websites i78t"><path id="パス_3106" data-name="パス 3106" class="cls-2" d="M68.07,3.89c.91,1.93-1,2.48-3.22,3.51S61,9.57,60.09,7.64,58.45,1.87,61.56.41,67.16,2,68.07,3.89Z"/><circle id="楕円形_130" data-name="楕円形 130" class="cls-3" cx="63.58" cy="4.72" r="2.96"/><path id="パス_3107" data-name="パス 3107" class="cls-2" d="M78.27,17.9c-.1-.14-.21-.27-.31-.4l-.4-.48c-1.54-1.78-3.17-2.89-5-3h0L69,17.51,67.75,18.7l0,.06.66,1.64H80A26.8,26.8,0,0,0,78.27,17.9Z"/><path id="パス_3108" data-name="パス 3108" class="cls-2" d="M60.35,5.91h0l1.06-.5-.15-1.53L62,5.15l.51-.24L62.4,4l.41.74L66.58,3h0a3.15,3.15,0,0,0-4.18-1.5h0l-.54.26a3.13,3.13,0,0,0-1.51,4.17Z"/><path id="パス_3109" data-name="パス 3109" class="cls-4" d="M84.92,59.81H23a2,2,0,0,1-2-2V20.61a1.46,1.46,0,0,1,1.46-1.46h63a1.48,1.48,0,0,1,1.48,1.48V57.81a2,2,0,0,1-2,2Z"/><path id="パス_3110" data-name="パス 3110" class="cls-1" d="M24.93,57.82H83a1.93,1.93,0,0,0,1.93-1.94h0V24.31A1.93,1.93,0,0,0,83,22.37H24.93A1.93,1.93,0,0,0,23,24.31h0V55.88a1.93,1.93,0,0,0,1.93,1.94Z"/><path id="パス_3111" data-name="パス 3111" class="cls-5" d="M86.89,20.46H21v-1a2,2,0,0,1,2-2h61.9a2,2,0,0,1,2,2Z"/><circle id="楕円形_131" data-name="楕円形 131" class="cls-1" cx="24.61" cy="18.96" r="0.52"/><circle id="楕円形_132" data-name="楕円形 132" class="cls-1" cx="26.58" cy="18.96" r="0.52"/><circle id="楕円形_133" data-name="楕円形 133" class="cls-1" cx="28.54" cy="18.96" r="0.52"/><path id="パス_3112" data-name="パス 3112" class="cls-6" d="M55.77,51H50.58a1.15,1.15,0,0,1-1.15-1.15V44.64a1.16,1.16,0,0,1,1.15-1.15h5.19a1.16,1.16,0,0,1,1.15,1.15v5.19A1.15,1.15,0,0,1,55.77,51Zm-5.19-7.24a.9.9,0,0,0-.91.9v5.19a.91.91,0,0,0,.91.91h5.19a.91.91,0,0,0,.91-.91V44.64a.9.9,0,0,0-.91-.9Z"/><path id="パス_3113" data-name="パス 3113" class="cls-6" d="M54.75,49.53H51.61a.37.37,0,0,1-.37-.36V45.3a.37.37,0,0,1,.37-.36h2.27a.4.4,0,0,1,.23.08l.86.7a.35.35,0,0,1,.14.28v3.17a.36.36,0,0,1-.36.36Zm-3.14-4.34a.12.12,0,0,0-.12.12v3.86a.12.12,0,0,0,.12.12h3.14a.12.12,0,0,0,.12-.12V46a.12.12,0,0,0,0-.09L54,45.22a.13.13,0,0,0-.08,0Z"/><path id="パス_3114" data-name="パス 3114" class="cls-6" d="M54.14,46.63H52.21a.12.12,0,0,1-.13-.11.14.14,0,0,1,.11-.13h2a.13.13,0,0,1,.13.11.12.12,0,0,1-.11.13h0Z"/><path id="パス_3115" data-name="パス 3115" class="cls-6" d="M54.14,47.36H52.21a.14.14,0,0,1-.13-.11.12.12,0,0,1,.11-.13h2a.12.12,0,0,1,.13.11.14.14,0,0,1-.11.13h0Z"/><path id="パス_3116" data-name="パス 3116" class="cls-6" d="M54.14,48.08H52.21a.12.12,0,0,1-.13-.11.14.14,0,0,1,.11-.13h2a.14.14,0,0,1,.13.11.12.12,0,0,1-.11.13h0Z"/><path id="パス_3117" data-name="パス 3117" class="cls-6" d="M68.09,51h-5.2a1.14,1.14,0,0,1-1.14-1.15V44.64a1.15,1.15,0,0,1,1.14-1.15h5.2a1.15,1.15,0,0,1,1.14,1.15v5.19A1.14,1.14,0,0,1,68.09,51Zm-5.2-7.24a.9.9,0,0,0-.9.9v5.19a.9.9,0,0,0,.9.91h5.2a.9.9,0,0,0,.9-.91V44.64a.9.9,0,0,0-.9-.9h-5.2Z"/><path id="パス_3118" data-name="パス 3118" class="cls-6" d="M67.18,48.57H63.8a.36.36,0,0,1-.36-.36V46.27a.36.36,0,0,1,.36-.36h3.38a.36.36,0,0,1,.36.36V48.2a.35.35,0,0,1-.35.37ZM63.8,46.15a.12.12,0,0,0-.12.13v1.93a.12.12,0,0,0,.12.12h3.38a.12.12,0,0,0,.12-.12V46.27a.12.12,0,0,0-.12-.12Z"/><path id="パス_3119" data-name="パス 3119" class="cls-6" d="M65.49,47.55a.32.32,0,0,1-.19,0l-1.8-1.13a.12.12,0,0,1-.07-.15.12.12,0,0,1,.16-.07l0,0,1.8,1.13a.13.13,0,0,0,.12,0l1.8-1.13a.13.13,0,0,1,.16.07.11.11,0,0,1,0,.13l-1.8,1.13A.3.3,0,0,1,65.49,47.55Z"/><path id="パス_3120" data-name="パス 3120" class="cls-6" d="M43.46,51h-5.2a1.14,1.14,0,0,1-1.14-1.15V44.64a1.15,1.15,0,0,1,1.14-1.15h5.2a1.15,1.15,0,0,1,1.14,1.15v5.19A1.14,1.14,0,0,1,43.46,51Zm-5.2-7.24a.9.9,0,0,0-.9.9v5.19a.9.9,0,0,0,.9.91h5.2a.9.9,0,0,0,.9-.91V44.64a.9.9,0,0,0-.9-.9Z"/><path id="パス_3121" data-name="パス 3121" class="cls-6" d="M42.55,48.57H39.17a.36.36,0,0,1-.36-.36V46.27a.36.36,0,0,1,.36-.36h3.38a.36.36,0,0,1,.36.36V48.2a.37.37,0,0,1-.36.37Zm-3.38-2.42a.12.12,0,0,0-.12.13h0v1.93a.12.12,0,0,0,.12.12h3.38a.12.12,0,0,0,.12-.12h0V46.27a.12.12,0,0,0-.12-.12H39.17Z"/><path id="パス_3122" data-name="パス 3122" class="cls-6" d="M42,48.57H39.58a.24.24,0,0,1-.24-.24.2.2,0,0,1,0-.13l.73-1.26a.23.23,0,0,1,.33-.09.24.24,0,0,1,.08.09l.48.81.27-.47a.26.26,0,0,1,.33-.09.2.2,0,0,1,.09.09l.53.92a.24.24,0,0,1-.08.33.28.28,0,0,1-.13,0Zm0-.25h0l-.53-.92-.38.66a.13.13,0,0,1-.1.06h0a.13.13,0,0,1-.1-.06l-.57-1-.74,1.26Z"/><circle id="楕円形_134" data-name="楕円形 134" class="cls-6" cx="42.19" cy="46.63" r="0.24"/><path id="パス_3123" data-name="パス 3123" class="cls-3" d="M99.93,78.39H98.45l-.7-5.71h2.18Z"/><path id="パス_3124" data-name="パス 3124" class="cls-2" d="M100.3,79.83H95.53v-.06a1.86,1.86,0,0,1,1.86-1.86h2.91Z"/><path id="パス_3125" data-name="パス 3125" class="cls-3" d="M106,78.39h-1.48l-.7-5.71H106Z"/><path id="パス_3126" data-name="パス 3126" class="cls-2" d="M106.34,79.83h-4.77v-.06a1.86,1.86,0,0,1,1.86-1.86h2.91Z"/><path id="パス_3127" data-name="パス 3127" class="cls-2" d="M105.52,75.92l-1.37-.42a.54.54,0,0,1-.38-.46l-1.28-12.12a.06.06,0,0,0-.12,0l-2.14,11.74a.54.54,0,0,1-.63.43h0l-1.76-.36a.55.55,0,0,1-.43-.57l1.3-19.23,8.83-1-1.31,21.46a.54.54,0,0,1-.57.51l-.13,0Z"/><circle id="楕円形_135" data-name="楕円形 135" class="cls-3" cx="105.51" cy="35.13" r="2.96"/><path id="パス_3128" data-name="パス 3128" class="cls-5" d="M98.69,55l1.91-12a4.58,4.58,0,0,1,5.23-3.8,3.39,3.39,0,0,1,.57.13h0a4.56,4.56,0,0,1,3.22,5.22l-2,10.77Z"/><path id="パス_3129" data-name="パス 3129" class="cls-3" d="M106.33,57.15a1.22,1.22,0,0,0,.35-1.68,1.15,1.15,0,0,0-.14-.17l2-3.83-2.23.24-1.54,3.6a1.22,1.22,0,0,0,1.58,1.84Z"/><path id="パス_3130" data-name="パス 3130" class="cls-5" d="M106.75,54.62a.65.65,0,0,1-.29-.14l-.76-.7a.56.56,0,0,1-.13-.61l1.52-3.59-.22-7.09a1.75,1.75,0,0,1,3.47.47l.37,4.46a5.59,5.59,0,0,1-1.08,3.79l-2.36,3.19a.51.51,0,0,1-.39.22Z"/><path id="パス_3131" data-name="パス 3131" class="cls-3" d="M88.43,33.52a1.22,1.22,0,0,0,1.42,1l.21-.06,2.75,3.32.65-2.15-2.72-2.82a1.22,1.22,0,0,0-1.61-.61,1.24,1.24,0,0,0-.7,1.34Z"/><path id="パス_3132" data-name="パス 3132" class="cls-5" d="M90.6,34.9a.51.51,0,0,1,.24-.22l.94-.42a.53.53,0,0,1,.61.11l2.71,2.8,6.62,2.56a1.75,1.75,0,1,1-1.79,3h0l-4.25-1.4a5.57,5.57,0,0,1-3.07-2.47l-2-3.42a.54.54,0,0,1,0-.55Z"/><path id="パス_3133" data-name="パス 3133" class="cls-7" d="M107.92,45.44l-.12,3.86-2.23,3.87,1.86-4.31Z"/><path id="パス_3134" data-name="パス 3134" class="cls-2" d="M105.17,35.69a.78.78,0,0,1-.85-.57,1.16,1.16,0,0,0-.83-.88c-.55-.12-1.21.13-1.61-.28a.76.76,0,0,1-.19-.7,1.63,1.63,0,0,1,.67-.95,4.19,4.19,0,0,1,2.28-.85,9.07,9.07,0,0,1,1.28.06,5.72,5.72,0,0,1,1.31.24A3.09,3.09,0,0,1,109.16,34a3.55,3.55,0,0,1-.73,2.91A3.78,3.78,0,0,1,107,38.05a.54.54,0,0,1-.43,0c-.36-.14-.3-.58-.14-.88s.45-.62.3-1a.75.75,0,0,0-.37-.41,2,2,0,0,0-1.14-.09Z"/><path id="パス_3135" data-name="パス 3135" class="cls-1" d="M87.44,37.36H50.74a2,2,0,0,1-2-2V27.52a2,2,0,0,1,2-2h36.7a2,2,0,0,1,2,2v7.84A2,2,0,0,1,87.44,37.36Z"/><path id="パス_3136" data-name="パス 3136" class="cls-8" d="M87.44,37.41H50.74a2,2,0,0,1-2.05-2V27.51a2.05,2.05,0,0,1,2.05-2.05h36.7a2.05,2.05,0,0,1,2.06,2.05v7.85A2,2,0,0,1,87.44,37.41ZM50.74,25.7a1.81,1.81,0,0,0-1.81,1.81v7.85a1.81,1.81,0,0,0,1.81,1.81h36.7a1.81,1.81,0,0,0,1.81-1.81V27.51a1.81,1.81,0,0,0-1.81-1.81Z"/><path id="パス_3137" data-name="パス 3137" class="cls-4" d="M83,35.42H55.21a2,2,0,0,1-2-2v-4.1a2,2,0,0,1,2-2H83a2,2,0,0,1,2,2v4.1A2,2,0,0,1,83,35.42Z"/><circle id="楕円形_136" data-name="楕円形 136" class="cls-9" cx="61.18" cy="30.83" r="2.38"/><path id="パス_3138" data-name="パス 3138" class="cls-8" d="M81.25,35.18l-3.36-2.82-3.3-2.77a.48.48,0,0,0-.62,0l-3.3,2.79-.8.68-1.22-1L65,29a.5.5,0,0,0-.63,0l-3.67,3.1-3.73,3.16a.12.12,0,0,0,0,.17.12.12,0,0,0,.09,0H67.09l0,0,7.22,0h6.89a.13.13,0,0,0,.12-.12.11.11,0,0,0,0-.09Z"/><path id="パス_3139" data-name="パス 3139" class="cls-6" d="M112.78,80H89.6a.12.12,0,0,1-.11-.13.11.11,0,0,1,.11-.11h23.18a.11.11,0,0,1,.11.13A.13.13,0,0,1,112.78,80Z"/><path id="パス_3140" data-name="パス 3140" class="cls-3" d="M80,15.93a1.35,1.35,0,0,0-.87-.62l-.2,0-9.2-8.23a1.09,1.09,0,0,0-.68-.32h-.16a1.08,1.08,0,0,0-1,1.14,1.13,1.13,0,0,0,.32.73l3.53,3.07,5.78,5a1.35,1.35,0,0,0,0,.28,1.37,1.37,0,0,0,1.17,1,1.32,1.32,0,0,0,.73-.12,1.51,1.51,0,0,0,.47-.36l0-.05A1.37,1.37,0,0,0,80,15.93Z"/><path id="パス_3141" data-name="パス 3141" class="cls-3" d="M64.3,23.85l-.09-3.48-.07-2.89,0-2L64,11.51a1.08,1.08,0,0,0-1.18-1,1.1,1.1,0,0,0-.72.35L62,11a1.05,1.05,0,0,0-.19.73L62,17.48l.1,2.89.14,3.69a1,1,0,0,0-.1.17,1.35,1.35,0,0,0,.57,1.84,1.36,1.36,0,0,0,1.55-2.22Z"/><path id="パス_3142" data-name="パス 3142" class="cls-6" d="M72.58,14l-.85-2.31L70.35,7.93a1.91,1.91,0,0,0-1.2-1.17l-.07,0a1.89,1.89,0,0,0-1.6.22l-4.65,3a1.93,1.93,0,0,0-.64,2.62c.59,1,1.22,2,1.9,2.92.55.74,1.56.82,1.73,2h3.43l3.47-3.12Z"/><circle id="楕円形_137" data-name="楕円形 137" class="cls-10" cx="19.32" cy="39.51" r="2.8"/><path id="パス_3143" data-name="パス 3143" class="cls-10" d="M26.18,37.59a.27.27,0,0,1,.08.07,1.25,1.25,0,0,1,.06,1.77l-.11.1-.1.07L26.3,46a1,1,0,0,1-.67.95h0l-5.19.56a1.08,1.08,0,0,1-.21-2.14h0l3.7-.33.64-5.53-.11-.12a1.25,1.25,0,0,1,.14-1.77,1.24,1.24,0,0,1,1.59,0Z"/><path id="パス_3144" data-name="パス 3144" class="cls-10" d="M23.92,78.52h1.4L26,73.13H23.93Z"/><path id="パス_3145" data-name="パス 3145" class="cls-2" d="M23.57,78.06h2.75a1.75,1.75,0,0,1,1.75,1.75v.06h-4.5Z"/><path id="パス_3146" data-name="パス 3146" class="cls-10" d="M10,76.58l1.2.72L14.57,73,12.8,72Z"/><path id="パス_3147" data-name="パス 3147" class="cls-2" d="M10,76l2.36,1.41h0a1.76,1.76,0,0,1,.61,2.4l0,.05L9,77.57Z"/><path id="パス_3148" data-name="パス 3148" class="cls-2" d="M25.65,76.61H24.08a.51.51,0,0,1-.51-.46L22,61.34a.18.18,0,0,0-.19-.16.21.21,0,0,0-.14.1l-2.84,6.3-5,8.21a.5.5,0,0,1-.64.2l-2-.88a.52.52,0,0,1-.27-.68l0-.05,4.63-7.75L17,60.1c-.44-2.83,1.47-7,1.49-7.09v0l5.27-2.06,0,0c2.08,6.83,3.34,14.17,2.41,25.18A.52.52,0,0,1,25.65,76.61Z"/><path id="パス_3149" data-name="パス 3149" class="cls-8" d="M18.24,53.63l0-.05s-1.18-2.5-2.08-5.14a3.85,3.85,0,0,1,.27-3.13,3.91,3.91,0,0,1,2.51-1.93h0a3.94,3.94,0,0,1,4.58,2.36A10.13,10.13,0,0,1,23.76,51v0l0,0Z"/><path id="パス_3150" data-name="パス 3150" class="cls-2" d="M22.71,37.92H18.26V36c1-.39,1.93-.72,2.51,0a1.94,1.94,0,0,1,1.94,1.93Z"/><path id="パス_3151" data-name="パス 3151" class="cls-2" d="M18,35.65c-2.66,0-3.4,3.33-3.4,5.21a1.33,1.33,0,0,0,1.22,1.55L16.1,41l.62,1.46h.65l.21-.43.47.42c1.86,0,3.37.28,3.37-1.59S20.76,35.65,18,35.65Z"/><path id="パス_3152" data-name="パス 3152" class="cls-6" d="M30.4,80H7.22a.12.12,0,0,1-.13-.11.11.11,0,0,1,.11-.13H30.4a.11.11,0,0,1,.13.11.12.12,0,0,1-.11.13Z"/><path id="パス_3153" data-name="パス 3153" class="cls-1" d="M30.84,40.2H25.65a1.14,1.14,0,0,1-1.15-1.14v-5.2a1.14,1.14,0,0,1,1.15-1.14h5.19A1.14,1.14,0,0,1,32,33.86v5.2A1.14,1.14,0,0,1,30.84,40.2Z"/><path id="パス_3154" data-name="パス 3154" class="cls-8" d="M30.84,40.2H25.65a1.14,1.14,0,0,1-1.15-1.14v-5.2a1.14,1.14,0,0,1,1.15-1.14h5.19A1.14,1.14,0,0,1,32,33.86v5.2A1.14,1.14,0,0,1,30.84,40.2ZM25.65,33a.9.9,0,0,0-.91.9v5.2a.9.9,0,0,0,.91.9h5.19a.9.9,0,0,0,.9-.9v-5.2a.9.9,0,0,0-.9-.9Z"/><path id="パス_3155" data-name="パス 3155" class="cls-5" d="M29.93,38.09H26.55a.36.36,0,0,1-.36-.36V35.2a.37.37,0,0,1,.36-.37h.95a.35.35,0,0,1,.31.18l.27.43h1.85a.37.37,0,0,1,.37.36v1.93A.37.37,0,0,1,29.93,38.09Z"/><path id="パス_3156" data-name="パス 3156" class="cls-10" d="M29.82,39.38a.47.47,0,0,1,.05.1,1.26,1.26,0,0,1-.64,1.66l-.13,0a.27.27,0,0,1-.12,0l-2.31,6a1,1,0,0,1-1,.61h0l-5-1.5A1.06,1.06,0,0,1,20,45a1.07,1.07,0,0,1,1.34-.71l3.54,1.14,2.74-4.86a.47.47,0,0,1-.06-.15,1.25,1.25,0,0,1,2.29-1Z"/></g></g></g></g></svg>