<svg xmlns="http://www.w3.org/2000/svg" xmlns:xlink="http://www.w3.org/1999/xlink" viewBox="0 0 120 80"><defs><style>.cls-1,.cls-31{fill:#fff;}.cls-2,.cls-4{fill:#6c63ff;}.cls-14,.cls-2,.cls-6{opacity:0.1;}.cls-2,.cls-27,.cls-31,.cls-6,.cls-9{isolation:isolate;}.cls-3{opacity:0.5;}.cls-5{fill:none;stroke:#535461;stroke-miterlimit:10;stroke-width:2px;}.cls-7{fill:#ffd037;}.cls-8{fill:#a8a8a8;}.cls-9{opacity:0.2;}.cls-10{fill:#e6e6f0;}.cls-11{fill:#fdc2cc;}.cls-12{fill:#565171;}.cls-13{fill:#b45181;}.cls-15{fill:#f569bc;}.cls-16{fill:#c69dee;}.cls-17{fill:url(#名称未設定グラデーション_2);}.cls-18{fill:#4f4d59;}.cls-19{fill:#c48c96;}.cls-20{fill:#714b4f;}.cls-21{fill:#ba7855;}.cls-22{fill:#503f43;}.cls-23{fill:#76b2ea;}.cls-24{fill:#3a63ae;}.cls-25{fill:#ebebeb;}.cls-26{fill:url(#名称未設定グラデーション_2-2);}.cls-27,.cls-34{opacity:0.05;}.cls-28{fill:#264de4;}.cls-29{fill:#2965f1;}.cls-30{fill:#47465a;}.cls-31{opacity:0.3;}.cls-32{fill:#e1a0a7;}.cls-33{fill:#8f5a6a;}</style><linearGradient id="名称未設定グラデーション_2" x1="-491.12" y1="1249.22" x2="-491.12" y2="1250.22" gradientTransform="matrix(20.92, 0, 0, -40.83, 10362.88, 51077.09)" gradientUnits="userSpaceOnUse"><stop offset="0" stop-color="gray" stop-opacity="0.25"/><stop offset="0.54" stop-color="gray" stop-opacity="0.12"/><stop offset="1" stop-color="gray" stop-opacity="0.1"/></linearGradient><linearGradient id="名称未設定グラデーション_2-2" x1="-489.65" y1="1250.54" x2="-489.65" y2="1251.54" gradientTransform="matrix(18.53, 0, 0, -47.58, 9108.06, 59578.12)" xlink:href="#名称未設定グラデーション_2"/></defs><g id="レイヤー_2" data-name="レイヤー 2"><g id="レイヤー_1-2" data-name="レイヤー 1"><g id="グループ_1152" data-name="グループ 1152"><rect id="長方形_215" data-name="長方形 215" class="cls-1" width="120" height="80"/><g id="undraw_static_assets_rpm6" data-name="undraw static assets rpm6"><ellipse id="楕円形_77" data-name="楕円形 77" class="cls-2" cx="90.95" cy="62.56" rx="25.49" ry="4.95"/><g id="グループ_1147" data-name="グループ 1147" class="cls-3"><path id="パス_2865" data-name="パス 2865" class="cls-4" d="M73.27,12.48a1.38,1.38,0,0,0-1,1c-.41,1.36.53,2.29.22,3.71a2.67,2.67,0,0,1-.48,1,6.64,6.64,0,0,1-1.19,1.12,3.58,3.58,0,0,0-1,1.72,4.84,4.84,0,0,0,0,2.24,8.76,8.76,0,0,0,.6,1.57,11.54,11.54,0,0,1,.62,2,4.81,4.81,0,0,1,.13,1A7.5,7.5,0,0,1,71,29.24l-.57,4a10.71,10.71,0,0,0-.16,1.6,7.83,7.83,0,0,0,.18,1.59,6.81,6.81,0,0,0,.89,2.73c.46.57,1.25.36,1.74-.78s.47-2.55.88-3.72c.64-1.84,1.92-2.08,2.63-3.84s.47-3.75.81-5.67c.24-1.37.78-2.63,1.09-4a12.6,12.6,0,0,0,0-5.5,7.24,7.24,0,0,0-1.71-3.32,1.68,1.68,0,0,0-1-.66c-.4,0-.75.48-1.14.63S73.74,12.35,73.27,12.48Z"/><path id="パス_2866" data-name="パス 2866" class="cls-5" d="M75.44,11.83s-.68,17.4-3.54,27.67"/><path id="パス_2867" data-name="パス 2867" class="cls-5" d="M72.28,13.61a9.76,9.76,0,0,1,2.48,8.08"/><path id="パス_2868" data-name="パス 2868" class="cls-5" d="M69.71,21.53s5,1,4.65,4"/><path id="パス_2869" data-name="パス 2869" class="cls-5" d="M78.52,15.67s-2,1.78-3.84,6.81"/><path id="パス_2870" data-name="パス 2870" class="cls-5" d="M76.54,30.88S75.15,32,74,28.17"/><path id="パス_2871" data-name="パス 2871" class="cls-5" d="M70.56,33.1s2.82-.37,3.08-2.13"/></g><path id="パス_2872" data-name="パス 2872" class="cls-4" d="M79,.8a2.18,2.18,0,0,0-1.89,1.43c-.68,2,1.38,3.45.91,5.5a3.06,3.06,0,0,1-.86,1.47,11.55,11.55,0,0,1-2.34,1.51,4.41,4.41,0,0,0-2,2.41,5.15,5.15,0,0,0,.16,3.29,13.07,13.07,0,0,0,1.43,2.38,16.63,16.63,0,0,1,1.5,3,5.38,5.38,0,0,1,.4,1.49,8.6,8.6,0,0,1-.1,2l-.72,5.87a12.1,12.1,0,0,0-.13,2.33A8.82,8.82,0,0,0,76,35.79c.54,1.59,1.13,3.25,2.16,4.13a2.25,2.25,0,0,0,3.15-.31,2.63,2.63,0,0,0,.36-.63c.83-1.56.67-3.7,1.38-5.37,1.11-2.64,3.72-2.85,5-5.35s.53-5.46,1-8.25c.35-2,1.29-3.78,1.77-5.74a13.53,13.53,0,0,0-.56-8.08,12.4,12.4,0,0,0-3.93-5.1A4.37,4.37,0,0,0,84.19,0c-.84-.09-1.5.61-2.3.78S80,.66,79,.8Z"/><path id="パス_2873" data-name="パス 2873" class="cls-5" d="M83.81.1s.65,25.55-4,40.33"/><path id="パス_2874" data-name="パス 2874" class="cls-5" d="M77.55,2.35s6.66,4.47,6.09,12.2"/><path id="パス_2875" data-name="パス 2875" class="cls-5" d="M73.34,12.37s10.51,2.08,10.09,6.45"/><path id="パス_2876" data-name="パス 2876" class="cls-5" d="M90.07,6.12s-4,2.38-7.14,9.58"/><path id="パス_2877" data-name="パス 2877" class="cls-5" d="M87.94,26s-2.74,1.44-5.49-4.3"/><path id="パス_2878" data-name="パス 2878" class="cls-5" d="M76.42,28.21s5.8-.2,6.13-2.78"/><path id="パス_2879" data-name="パス 2879" class="cls-4" d="M12.11,61.76s1,1.33-.47,3.32S8.94,68.76,9.44,70c0,0,2.23-3.7,4.05-3.75S14.11,64,12.11,61.76Z"/><path id="パス_2880" data-name="パス 2880" class="cls-6" d="M12.11,61.76a1.65,1.65,0,0,1,.21.42c1.77,2.08,2.71,4,1,4.07s-3.48,2.88-3.94,3.59l.06.17s2.23-3.71,4-3.76S14.11,64,12.11,61.76Z"/><path id="パス_2881" data-name="パス 2881" class="cls-7" d="M14,63.45c0,.46-.05.84-.12.84s-.12-.37-.12-.84.06-.24.13-.24S14,63,14,63.45Z"/><path id="パス_2882" data-name="パス 2882" class="cls-7" d="M14.64,64c-.41.23-.77.37-.8.3s.28-.28.68-.5.25-.06.28,0S15,63.78,14.64,64Z"/><path id="パス_2883" data-name="パス 2883" class="cls-4" d="M6.78,61.76s-1,1.33.46,3.32,2.7,3.68,2.2,4.92c0,0-2.23-3.7-4-3.75S4.78,64,6.78,61.76Z"/><path id="パス_2884" data-name="パス 2884" class="cls-6" d="M6.78,61.76a1.65,1.65,0,0,0-.21.42c-1.77,2.08-2.71,4-1,4.07S9,69.13,9.5,69.84a1.15,1.15,0,0,1-.06.17s-2.22-3.71-4-3.76S4.78,64,6.78,61.76Z"/><path id="パス_2885" data-name="パス 2885" class="cls-7" d="M4.89,63.45c0,.46.06.84.13.84s.12-.37.12-.84-.07-.24-.13-.24S4.89,63,4.89,63.45Z"/><path id="パス_2886" data-name="パス 2886" class="cls-7" d="M4.25,64c.41.23.76.37.79.3s-.27-.28-.68-.5-.25-.06-.28,0S3.84,63.78,4.25,64Z"/><path id="パス_2887" data-name="パス 2887" class="cls-8" d="M5.22,69.83s2.82-.08,3.67-.69,4.34-1.33,4.56-.36,4.25,4.83,1.06,4.86-7.42-.5-8.27-1S5.22,69.83,5.22,69.83Z"/><path id="パス_2888" data-name="パス 2888" class="cls-9" d="M14.56,73.3c-3.19,0-7.41-.5-8.26-1-.65-.39-.9-1.81-1-2.46H5.22s.17,2.28,1,2.8,5.07,1,8.26,1c.92,0,1.24-.33,1.22-.82C15.6,73.12,15.25,73.3,14.56,73.3Z"/><path id="パス_2889" data-name="パス 2889" class="cls-4" d="M111.17,62.91a1.35,1.35,0,0,0,.47-.7.62.62,0,0,0-.33-.71.92.92,0,0,0-.85.3,1.12,1.12,0,0,1-.83.4A1.25,1.25,0,0,0,110,61a.44.44,0,0,0-.11-.24c-.17-.18-.46-.1-.66,0a2.46,2.46,0,0,0-.81,2.06,4,4,0,0,1,0-.85.84.84,0,0,0-.32-.75.89.89,0,0,0-.48-.11,1,1,0,0,0-.79.22.8.8,0,0,0,0,1,3.22,3.22,0,0,0,.82.65,1.82,1.82,0,0,1,.58.56.3.3,0,0,1,0,.1h1.77A4.94,4.94,0,0,0,111.17,62.91Z"/><path id="パス_2890" data-name="パス 2890" class="cls-2" d="M21.05,49.91c3.45,4.88,2.11,12-.09,17.72-.73,1.91-1.56,3.93-1.25,6a7.39,7.39,0,0,0,4.51,5.31,12.27,12.27,0,0,0,12-1.1c3.06-2.12,5.25-5.56,8.36-7.58,5.21-3.37,11.84-2.1,17.5.23,4,1.64,8.37,3.79,12.35,2.07,2.8-1.21,4.73-4.16,5.78-7.28a13.74,13.74,0,0,1,1.85-4.35,7.14,7.14,0,0,1,2.1-1.64c7-3.88,16-1.8,22.8-6.11,4.62-2.91,7.58-8.4,8.9-14.12s1.16-11.72.82-17.61c-.23-4.19-.66-8.66-3.07-11.89a11.21,11.21,0,0,0-10.87-4c-3.95.65-7.54,3-10.68,5.7-3.94,3.41-7.6,7.66-12.43,9-3.29.94-6.76.42-10.16.25a94.8,94.8,0,0,0-17,1.08c-5.41.7-10.86,1.46-16,3.41-3.65,1.39-6.57,3.9-10,5.65-2.25,1.14-4.69,1.46-6.82,2.91-2.61,1.8-5,4.92-4.34,8.57C15.94,45.58,19.21,47.32,21.05,49.91Z"/><ellipse id="楕円形_78" data-name="楕円形 78" class="cls-2" cx="64.96" cy="48.04" rx="45.93" ry="4.95"/><ellipse id="楕円形_79" data-name="楕円形 79" class="cls-2" cx="30.97" cy="73.54" rx="25.49" ry="4.95"/><path id="パス_2891" data-name="パス 2891" class="cls-10" d="M52.17,46.67l-.4.59s.44.58.48.66a8,8,0,0,0,1.29,0l.11-.44-.19-.51Z"/><path id="パス_2892" data-name="パス 2892" class="cls-11" d="M39.89,46.34l-.81.15.51,1,.55.29.52.37.14-.4L40.44,47Z"/><path id="パス_2893" data-name="パス 2893" class="cls-12" d="M51.79,37.25s4.3,1,5.1,2.17c0,0,.73.63,0,1.76a30.72,30.72,0,0,0-1.77,3.71,13.34,13.34,0,0,1-1,2.68c-.3.19-2,.33-2.13-.36a6.83,6.83,0,0,0,1-2.2,23,23,0,0,1,1.58-4,25,25,0,0,0-4.74-.15C48.63,41.12,50.28,36.85,51.79,37.25Z"/><path id="パス_2894" data-name="パス 2894" class="cls-6" d="M51.79,37.25s4.3,1,5.1,2.17c0,0,.73.63,0,1.76a30.72,30.72,0,0,0-1.77,3.71,13.34,13.34,0,0,1-1,2.68c-.3.19-2,.33-2.13-.36a6.83,6.83,0,0,0,1-2.2,23,23,0,0,1,1.58-4,25,25,0,0,0-4.74-.15C48.63,41.12,50.28,36.85,51.79,37.25Z"/><path id="パス_2895" data-name="パス 2895" class="cls-12" d="M51.82,38.2a6.7,6.7,0,0,1-.07.72,41.4,41.4,0,0,1-1,4.65,16.27,16.27,0,0,0-1,2.71C49.54,47.35,48,47.61,48,47.61a32.94,32.94,0,0,1-5,.29c-.84-.18-2.17.55-2.83.44s-1.06-1.65-1.06-1.65a7.83,7.83,0,0,0,3.3-.7,8.7,8.7,0,0,1,4.11-.4,1.36,1.36,0,0,0,.84-.7,17.69,17.69,0,0,0,.19-4.11,5.21,5.21,0,0,1-.3-2.92,1.4,1.4,0,0,1,.3-.64Z"/><path id="パス_2896" data-name="パス 2896" class="cls-6" d="M51.32,38.68c0,.21,0,.45-.06.71A3.92,3.92,0,0,1,49.08,39a5.83,5.83,0,0,0-2.25-.64,1.46,1.46,0,0,1,.3-.64Z"/><path id="パス_2897" data-name="パス 2897" class="cls-10" d="M51.82,38.28c-.17.48-.44,1-.44,1a4,4,0,0,1-2.31-.4,6.23,6.23,0,0,0-2.5-.66,1.85,1.85,0,0,0,.52-1,5.42,5.42,0,0,0,.14-.7s4.52.92,4.7,1.07S51.93,38,51.82,38.28Z"/><path id="パス_2898" data-name="パス 2898" class="cls-11" d="M59.14,24.33l-5.48,3.31-.54.32V26.35l.38-.18L58.11,24s.22-4,.81-3.37S59.14,24.33,59.14,24.33Z"/><path id="パス_2899" data-name="パス 2899" class="cls-6" d="M53.9,27.26l-.55.33V26l.38-.18A11.87,11.87,0,0,0,53.9,27.26Z"/><path id="パス_2900" data-name="パス 2900" class="cls-13" d="M49.87,27.8l3.93-2.27s.07,2.2.51,2.53a4.58,4.58,0,0,0-2.24,1.5Z"/><path id="パス_2901" data-name="パス 2901" class="cls-6" d="M49.87,27.8l3.93-2.27s.07,2.2.51,2.53a4.58,4.58,0,0,0-2.24,1.5Z"/><path id="パス_2902" data-name="パス 2902" class="cls-11" d="M59,29.67a24.39,24.39,0,0,1-3.1,1.12,2.78,2.78,0,0,1-.86.1c-.85-.15.22-1.21.22-1.21l.44-.07,2.38-.37s.26-3.67.71-3.38S59,29.67,59,29.67Z"/><path id="パス_2903" data-name="パス 2903" class="cls-11" d="M51.86,26.49s-1.58,1.17-1,2.64-3-.88-3-.88a10.8,10.8,0,0,0,1.43-3.08C49.51,23.85,51.86,26.49,51.86,26.49Z"/><path id="パス_2904" data-name="パス 2904" class="cls-6" d="M51.79,38.33a8.69,8.69,0,0,0-2.13-.5,11.68,11.68,0,0,1-2.6-.54,6.19,6.19,0,0,0,.14-.7s4.52.91,4.7,1.06S51.9,38,51.79,38.33Z"/><path id="パス_2905" data-name="パス 2905" class="cls-6" d="M56.05,30.56a2.51,2.51,0,0,1-.86.1c-.84-.15.22-1.21.22-1.21l.45-.07A1.31,1.31,0,0,1,56.05,30.56Z"/><path id="パス_2906" data-name="パス 2906" class="cls-13" d="M49.18,26.63s-1.43,0-2,.56a4.06,4.06,0,0,0-.4,2.17,14.28,14.28,0,0,0,.7,4.94.23.23,0,0,1,0,.18h0s-.51,2.31-1,2.72,1.1.88,3,1.1a6,6,0,0,1,2.68.77,1.92,1.92,0,0,0,.36-1.18c0-.81-.51-6.71-.51-6.71a5.64,5.64,0,0,0,3.23-.11s.55.29,1.07-.52S56,28.87,56,28.87s-.81.81-3.05-.25S49.87,26.6,49.18,26.63Z"/><path id="パス_2907" data-name="パス 2907" class="cls-10" d="M39.32,46.41h-.44V47l.44,1,.62.11.52-.11.14-.26S39,47.14,39.32,46.41Z"/><path id="パス_2908" data-name="パス 2908" class="cls-13" d="M51.74,46.88l-.67,1.47,2.8,1.33,2.2.07s.18-.51-.56-.77l-.58-.11a8.78,8.78,0,0,1-.85-2s-.73.15-.84.7A1.09,1.09,0,0,1,51.79,47,.5.5,0,0,1,51.74,46.88Z"/><path id="パス_2909" data-name="パス 2909" class="cls-13" d="M39,46.14l-.23.18-1,.81,2.27,3s1.29.55,1.88,0c0,0,.36-.36-.45-.66a.49.49,0,0,1-.6-.36.39.39,0,0,1,0-.15,2.18,2.18,0,0,1,.36-1.43s-.55-.19-.7,0a2.27,2.27,0,0,0-.29.4A2,2,0,0,1,39,46.14Z"/><path id="パス_2910" data-name="パス 2910" class="cls-6" d="M49.12,25.32a5.62,5.62,0,0,1-.15.55,1.91,1.91,0,0,0,2.44,1.05,2.7,2.7,0,0,1,.31-.28S49.37,24,49.12,25.32Z"/><path id="パス_2911" data-name="パス 2911" class="cls-6" d="M48.92,29.75a4.06,4.06,0,0,0,2.79,1.54"/><g id="グループ_1148" data-name="グループ 1148" class="cls-14"><path id="パス_2912" data-name="パス 2912" d="M55.69,31.1l-.07,0-.11.05A.57.57,0,0,0,55.69,31.1Z"/><path id="パス_2913" data-name="パス 2913" d="M56.08,29a.64.64,0,0,0-.13-.15,1.39,1.39,0,0,1-.83.29A2.12,2.12,0,0,0,56.08,29Z"/><path id="パス_2914" data-name="パス 2914" d="M52.39,31.19v.07a8,8,0,0,0,1.47.13A8.23,8.23,0,0,1,52.39,31.19Z"/><path id="パス_2915" data-name="パス 2915" d="M49.86,38.31c-1.91-.22-3.52-.7-3-1.1s1-2.72,1-2.72,0,0,0,0a.25.25,0,0,0,0-.19,14,14,0,0,1-.7-4.94,4,4,0,0,1,.4-2.17,2.68,2.68,0,0,1,1.7-.55h-.12s-1.43,0-1.95.55a4,4,0,0,0-.39,2.18,13.82,13.82,0,0,0,.7,4.94.28.28,0,0,1,0,.18h0s-.51,2.31-1,2.71,1.1.88,3,1.1a6.15,6.15,0,0,1,2.68.77l.1-.15A7.45,7.45,0,0,0,49.86,38.31Z"/></g><circle id="楕円形_80" data-name="楕円形 80" class="cls-11" cx="50.77" cy="25.18" r="1.91"/><path id="パス_2916" data-name="パス 2916" class="cls-6" d="M53.72,24.17c-.16.4-.63.54-1,.65a3.07,3.07,0,0,1-1.8.06.39.39,0,0,0-.24-.05.36.36,0,0,0-.16.14c-.62.89-.52,2.07-.68,3.15a1.72,1.72,0,0,1-.36.92c-.44.49-1.27.47-1.67,1a1.93,1.93,0,0,0-.27,1.24c0,.46,0,.92,0,1.38a2.05,2.05,0,0,1-.16.88,2.1,2.1,0,0,1-1.22.84,2.13,2.13,0,0,1-.93.2.74.74,0,0,1-.67-.56c-.06-.44.38-.74.69-1A2.81,2.81,0,0,0,45.91,31a2,2,0,0,0-.12-.83c-.11-.27-.31-.5-.43-.77A2.64,2.64,0,0,1,46,26.91a5.34,5.34,0,0,0,1.34-2.34,3.45,3.45,0,0,1,.59-1.73,2.54,2.54,0,0,1,1.21-.5c.34-.05.68,0,1-.1s.76-.27,1.15-.34c.85-.15,1.77.84,2.14,1.62C53.55,23.76,53.82,23.93,53.72,24.17Z"/><path id="パス_2917" data-name="パス 2917" class="cls-15" d="M53.72,24.1c-.16.4-.63.55-1,.65a3,3,0,0,1-1.8.06.38.38,0,0,0-.24,0,.27.27,0,0,0-.16.14c-.62.88-.52,2.07-.68,3.14a1.75,1.75,0,0,1-.36.93c-.44.48-1.27.46-1.67,1a1.9,1.9,0,0,0-.27,1.23c0,.46,0,.92,0,1.38a2.05,2.05,0,0,1-.16.88,2.07,2.07,0,0,1-1.22.85,2.12,2.12,0,0,1-.93.19.71.71,0,0,1-.67-.56c-.06-.43.38-.73.69-1A2.82,2.82,0,0,0,45.91,31a2,2,0,0,0-.12-.83c-.11-.27-.31-.5-.43-.77A2.62,2.62,0,0,1,46,26.85a5.37,5.37,0,0,0,1.34-2.35,3.45,3.45,0,0,1,.59-1.73,2.54,2.54,0,0,1,1.21-.5c.34-.05.68,0,1-.1s.76-.26,1.15-.33c.85-.15,1.77.83,2.14,1.61C53.55,23.69,53.82,23.86,53.72,24.1Z"/><path id="パス_2918" data-name="パス 2918" class="cls-16" d="M56.94,19.75H88.67V51.49H56.94Z"/><path id="パス_2919" data-name="パス 2919" d="M65.14,45.45,67.57,44c.47.83.89,1.54,1.92,1.54s1.6-.39,1.6-1.88V33.5h3V43.68c0,3.09-1.81,4.5-4.45,4.5a4.64,4.64,0,0,1-4.48-2.73m10.55-.32,2.42-1.4a3.28,3.28,0,0,0,2.94,1.81c1.24,0,2-.62,2-1.47,0-1-.81-1.39-2.17-2l-.75-.32c-2.15-.91-3.58-2.06-3.58-4.49,0-2.24,1.7-3.94,4.37-3.94a4.41,4.41,0,0,1,4.24,2.38l-2.32,1.5A2,2,0,0,0,81,35.93a1.3,1.3,0,0,0-1.42,1.16s0,.08,0,.12c0,.89.56,1.25,1.84,1.8l.74.32c2.53,1.09,4,2.2,4,4.69,0,2.68-2.11,4.15-4.94,4.15a5.72,5.72,0,0,1-5.43-3"/><path id="パス_2920" data-name="パス 2920" class="cls-17" d="M98.66,66.68a2.27,2.27,0,0,1-2-1.24,4.36,4.36,0,0,0-.52-.75,2.44,2.44,0,0,1-.37-1.34c0-1-1-6.37-1-6.37a5.47,5.47,0,0,0-.9-3.33,25,25,0,0,1-2.23-4.81.37.37,0,0,0,.14.07l0-.14h0l-.3-1.66a7.66,7.66,0,0,1-1.1-1.67l.07,0,.91-.19a10.38,10.38,0,0,0,1.56-3.12h.29a34.91,34.91,0,0,1,4.09.21h0l0-.07h0a4.56,4.56,0,0,1-.14-.64h.09l.84,0s2.91-3.25,1.84-3.84-2.18,2.69-2.18,2.69l-.36.06-.1,0,0,0s-4.74-.21-5.48-1.37c0,0-2.09-1.66-2.18-2.77a1.26,1.26,0,0,0-.75-1.07,1.58,1.58,0,0,0-.83-.15l-1,.06.07.13h0a3.81,3.81,0,0,1-.15-.44h0a.29.29,0,0,1,0-.09A2.29,2.29,0,0,0,88.69,32s0-.05,0-.07a1,1,0,0,0,.29,0,.84.84,0,0,0,.62-.8V31a1.25,1.25,0,0,0-.47-1c-.21-.15-.41-.3-.6-.46a4.1,4.1,0,0,1-.49-.76,2.29,2.29,0,0,0-1.16-.9,1,1,0,0,0-1.06.12c-.14.13-.22.32-.38.43a1.61,1.61,0,0,1-.81.15,1.53,1.53,0,0,0-1.16.87,2,2,0,0,0-.19.91,2.36,2.36,0,0,0,.08.65c.05.21.13.41.19.62.12.44.15.89.29,1.32a1.58,1.58,0,0,0,.53.81l0,.18s-.69.15-1.15,1.15A6,6,0,0,1,81,37.09a.91.91,0,0,0-.4.56,3.35,3.35,0,0,0-.07.71,4.91,4.91,0,0,0,.51,2.13,17.29,17.29,0,0,0,1.63,2.95s0,.63,0,1.29A3.94,3.94,0,0,1,82.61,46a4.65,4.65,0,0,0-.11,1.34c0,1.16.11,2.68.11,2.68l.83.13.32,5.54a2.7,2.7,0,0,1-.6,1.85,4,4,0,0,1-.76.72c-.9.64-2.82,7.39-2.82,7.39l.25,0-.59,1.65s2.36,1.81,3.8,1.31a1.27,1.27,0,0,1,.48-.06c.28,0,.89-.23.55-.52a20.86,20.86,0,0,1-1.84-1.92.57.57,0,0,1,.13.08h0a1.1,1.1,0,0,1,0-.18h0c0-.45.18-1.57.45-1.7a54.25,54.25,0,0,0,2.86-5.17l2.52-6.5s2,3.46,3.72,4.06v1.45a39,39,0,0,0,1.28,4.74c.34.47,0,2.35,0,2.35a1.43,1.43,0,0,0,.23.2L93.17,67a17.14,17.14,0,0,1,5.3.94S99.73,67.37,98.66,66.68ZM90.8,44.34l-.41.1-.08,0,0-.08a.94.94,0,0,1-.3.07A5.44,5.44,0,0,1,89.74,43a9,9,0,0,1-.25-1.79,1.25,1.25,0,0,1,.16-.73h.14l.1.09h0l0,0h0l0,0h0l0,0h0l.06,0h0l.07.05v0l.07.05h0l.06,0h0l.07.06h0l.07.05h0l.08.06h0l.08.06h0l.08,0,0,0,.09,0h0l.08.06h0l.09.05h0l.1.06h0l.1,0h0l.1.05h0l.1,0h0l.1.05h0l.11,0h0a6.78,6.78,0,0,0-1,2.51Z"/><path id="パス_2921" data-name="パス 2921" class="cls-18" d="M83.35,63.64l-.79,2.21s2.17,1.67,3.58,1.32a4.87,4.87,0,0,1,.65-.1c.29,0,.8-.23.48-.5a26.22,26.22,0,0,1-2.33-2.5Z"/><path id="パス_2922" data-name="パス 2922" class="cls-18" d="M93.45,63.51l-.38,2.12a17.14,17.14,0,0,1,5.17.92s1.26-.54.21-1.21a2.23,2.23,0,0,1-2-1.2c-.75-1.29-1.2-1.13-1.2-1.13Z"/><path id="パス_2923" data-name="パス 2923" class="cls-19" d="M85.68,48.64,86,55.11A2.66,2.66,0,0,1,85.4,57a4.19,4.19,0,0,1-.68.65c-.88.62-2.76,7.21-2.76,7.21a8.32,8.32,0,0,1,2.71.54s.12-1.66.46-1.83a50.67,50.67,0,0,0,2.8-5l2.46-6.34s2,3.38,3.63,4v1.41a35.15,35.15,0,0,0,1.25,4.63c.33.46,0,2.29,0,2.29s1,1.21,3.17-.08a2.76,2.76,0,0,1-.67-1.75c0-1-1-6.21-1-6.21a5.52,5.52,0,0,0-.88-3.26c-1-1.25-2.65-6-2.65-6l-1.15-2.47Z"/><g id="グループ_1149" data-name="グループ 1149" class="cls-14"><path id="パス_2924" data-name="パス 2924" d="M82.51,64.86s1.88-6.59,2.75-7.21A4,4,0,0,0,86,57a2.7,2.7,0,0,0,.6-1.85l-.37-6.47,6.15-3.79-.08-.18-6.45,4,.37,6.47a2.65,2.65,0,0,1-.6,1.85,3.92,3.92,0,0,1-.72.69c-.88.62-2.75,7.21-2.75,7.21a8.43,8.43,0,0,1,2.71.54,1,1,0,0,1,0-.17A12.5,12.5,0,0,0,82.51,64.86Z"/><path id="パス_2925" data-name="パス 2925" d="M95.81,64.49s.33-1.84,0-2.29a37.71,37.71,0,0,1-1.25-4.63V56.14c-1.67-.58-3.63-4-3.63-4l-.15.38c.57.9,2.08,3.12,3.4,3.59v1.41a36.81,36.81,0,0,0,1.26,4.63c.33.46,0,2.3,0,2.3a1.74,1.74,0,0,0,1.49.5A1.66,1.66,0,0,1,95.81,64.49Z"/></g><path id="パス_2926" data-name="パス 2926" class="cls-20" d="M97.87,43.27l-.82,0-.43,0v-1l.56-.1.35-.07s1.09-3.21,2.13-2.63S97.87,43.27,97.87,43.27Z"/><path id="パス_2927" data-name="パス 2927" class="cls-20" d="M87.45,35.12a34.41,34.41,0,0,0-.7,3.37c-.17,1.29,3.87.25,3.87.25s-1.54-1.87-.66-2.87Z"/><path id="パス_2928" data-name="パス 2928" class="cls-10" d="M91.73,43.46l.08.79-1.29-.08L89.22,43l-1.29-3.63-.83-1.29-.63-.79.25-1,.31.25c.64.48,2.13,1.5,3.21,1.22l.15,0L92,40.57Z"/><path id="パス_2929" data-name="パス 2929" class="cls-6" d="M86.51,35.7s-.67.12-1.12,1.13a6.09,6.09,0,0,1-2.08,1.89.86.86,0,0,0-.4.56,4.13,4.13,0,0,0,.43,2.63,17.16,17.16,0,0,0,1.59,2.88,9.78,9.78,0,0,1-.08,2.59,18.56,18.56,0,0,0,0,3.8s4.38.83,5.84,0,1.25-4,1.25-4,1.37,2.92,1.87,3l-.29-1.63a7,7,0,0,1-1.71-4s-.5-2-.08-2.58c0,0,7,.58,7.46.08,0,0-4.63-.21-5.33-1.33,0,0-2-1.63-2.13-2.72a1.21,1.21,0,0,0-.63-1,1.68,1.68,0,0,0-.93-.21l-.94.07a18.58,18.58,0,0,1,1.54,3.25c-.08.38.08,3.42.08,3.42s-1.88-4-2.71-4.5a7.31,7.31,0,0,1-1.79-2.34l.16-.95"/><path id="パス_2930" data-name="パス 2930" class="cls-6" d="M91.73,43.46l.08.79-1.29-.08L89.22,43l-1.29-3.63-.83-1.29-.63-.79.25-1,.31.25-.06.33a7.48,7.48,0,0,0,1.8,2.34c.82.46,2.71,4.5,2.71,4.5s-.17-3-.09-3.42a11.35,11.35,0,0,0-1.14-2.54l.14,0L92,40.57Z"/><path id="パス_2931" data-name="パス 2931" class="cls-6" d="M97.05,43.2l-.43,0v-1l.56-.1A1.67,1.67,0,0,0,97.05,43.2Z"/><path id="パス_2932" data-name="パス 2932" class="cls-19" d="M86.51,35.59s-.67.12-1.12,1.13a6.09,6.09,0,0,1-2.08,1.89.86.86,0,0,0-.4.56,4.13,4.13,0,0,0,.43,2.63,17.16,17.16,0,0,0,1.59,2.88,9.78,9.78,0,0,1-.08,2.59,18.56,18.56,0,0,0,0,3.8s4.38.83,5.84,0,1.25-4,1.25-4,1.37,2.92,1.87,3l-.29-1.63a7,7,0,0,1-1.71-4s-.5-2-.08-2.58a5.49,5.49,0,0,0,3.46,1.71,33.39,33.39,0,0,1,4,.21s-.42-1.34,0-1.84c0,0-4.63-.21-5.34-1.33,0,0-2-1.63-2.13-2.71a1.2,1.2,0,0,0-.62-1,1.69,1.69,0,0,0-.94-.21l-.94.07A18.38,18.38,0,0,1,90.77,40c-.09.37.08,3.42.08,3.42s-1.88-4-2.71-4.51a7.48,7.48,0,0,1-1.8-2.34l.17-.95"/><path id="パス_2933" data-name="パス 2933" class="cls-6" d="M86.1,40s1,3.38,1.58,3.8,4.13,2.54,5.17,2c0,0,.26,1.26-.12,1.55,0,0-3.88-.15-3.92-.17s-2.54-.33-3-1.58-.92-3.38-.92-3.38Z"/><ellipse id="楕円形_81" data-name="楕円形 81" class="cls-21" cx="91.4" cy="43.65" rx="0.15" ry="0.21"/><ellipse id="楕円形_82" data-name="楕円形 82" class="cls-21" cx="91.78" cy="44.97" rx="0.15" ry="0.21"/><g id="グループ_1150" data-name="グループ 1150" class="cls-14"><path id="パス_2934" data-name="パス 2934" d="M85.14,51a18.56,18.56,0,0,1,0-3.8,9.78,9.78,0,0,0,.08-2.59,16.34,16.34,0,0,1-1.58-2.87,4.1,4.1,0,0,1-.44-2.64.91.91,0,0,1,.4-.56,5.89,5.89,0,0,0,2.08-1.89,2.18,2.18,0,0,1,.81-1l0-.09s-.67.12-1.13,1.12a5.86,5.86,0,0,1-2.07,1.89.9.9,0,0,0-.4.57,4.14,4.14,0,0,0,.43,2.63,17.56,17.56,0,0,0,1.59,2.88,9.69,9.69,0,0,1-.08,2.58,18.56,18.56,0,0,0,0,3.8,18,18,0,0,0,5,.28A19.32,19.32,0,0,1,85.14,51Z"/><path id="パス_2935" data-name="パス 2935" d="M90.77,40a24.11,24.11,0,0,0,0,2.69l.33.69s-.17-3.05-.08-3.42a17.36,17.36,0,0,0-1.53-3.23l-.3,0A19.33,19.33,0,0,1,90.77,40Z"/><path id="パス_2936" data-name="パス 2936" d="M95.48,43.47A5.41,5.41,0,0,1,92,41.76a.67.67,0,0,0-.1.23,5.14,5.14,0,0,0,3.27,1.53,35.6,35.6,0,0,1,4,.2l0-.07A32.56,32.56,0,0,0,95.48,43.47Z"/><path id="パス_2937" data-name="パス 2937" d="M92.22,47s0,.26,0,.65c.43.86,1.22,2.33,1.58,2.39l-.06-.34A19.94,19.94,0,0,1,92.22,47Z"/></g><path id="パス_2938" data-name="パス 2938" class="cls-20" d="M93.56,46.48l-.88.19-.7.15.37-1,.27-.06.4-.1s.58-2.92,1.75-2.71S93.56,46.48,93.56,46.48Z"/><path id="パス_2939" data-name="パス 2939" class="cls-6" d="M92.85,46.56l-.7.15.38-1.05.26-.06A3.88,3.88,0,0,1,92.85,46.56Z"/><path id="パス_2940" data-name="パス 2940" class="cls-19" d="M86.1,39.93s1,3.37,1.58,3.8,4.13,2.54,5.17,2c0,0,.26,1.25-.12,1.54l-3.92-.16s-2.54-.34-3-1.59-.92-3.37-.92-3.37Z"/><path id="パス_2941" data-name="パス 2941" class="cls-6" d="M87.53,35.28s-.09.33-.2.8a2.25,2.25,0,0,0,2.48,1.15A1.3,1.3,0,0,1,90,36Z"/><circle id="楕円形_83" data-name="楕円形 83" class="cls-20" cx="89.18" cy="35.09" r="2.25"/><path id="パス_2942" data-name="パス 2942" class="cls-6" d="M91.09,34.62a1.07,1.07,0,0,0,.5,0,.8.8,0,0,0,.61-.78,1.16,1.16,0,0,0-.46-.93,6.55,6.55,0,0,1-.59-.45,4.52,4.52,0,0,1-.49-.74,2.16,2.16,0,0,0-1.13-.88,1,1,0,0,0-1,.12c-.14.13-.22.31-.37.42a1.66,1.66,0,0,1-.79.14,1.5,1.5,0,0,0-1.13.85,2,2,0,0,0-.11,1.44c.05.2.13.4.18.6.12.43.15.87.28,1.29a1.4,1.4,0,0,0,.84,1,2.72,2.72,0,0,1,.27-1.37.39.39,0,0,1,.19-.21.45.45,0,0,1,.23,0,2.24,2.24,0,0,0,1.52-.31c.16-.1.41-.43.58-.46S90.86,34.58,91.09,34.62Z"/><path id="パス_2943" data-name="パス 2943" class="cls-22" d="M91.09,34.55a1.42,1.42,0,0,0,.5,0,.82.82,0,0,0,.61-.79,1.19,1.19,0,0,0-.46-.93,6.55,6.55,0,0,1-.59-.45,4.52,4.52,0,0,1-.49-.74,2.16,2.16,0,0,0-1.13-.88,1,1,0,0,0-1,.12c-.14.13-.22.32-.37.43a1.66,1.66,0,0,1-.79.14,1.49,1.49,0,0,0-1.13.84,2.08,2.08,0,0,0-.11,1.45c.05.2.13.4.18.6.12.42.15.87.28,1.29a1.38,1.38,0,0,0,.84,1,2.66,2.66,0,0,1,.27-1.36.36.36,0,0,1,.19-.21.45.45,0,0,1,.23,0,2.28,2.28,0,0,0,1.53-.31c.16-.1.41-.43.58-.46S90.86,34.5,91.09,34.55Z"/><path id="パス_2944" data-name="パス 2944" class="cls-23" d="M111,26.69l-1.84,20.59-8.26,2.29-8.24-2.29L90.78,26.69Z"/><path id="パス_2945" data-name="パス 2945" class="cls-24" d="M100.87,47.81,107.54,46l1.56-17.59h-8.23Z"/><path id="パス_2946" data-name="パス 2946" class="cls-25" d="M97.29,33.4h3.58V30.88H94.53l.06.68.62,7h5.66V36H97.52Zm.58,6.38H95.34l.35,4,5.16,1.44h0V42.55h0L98,41.79Z"/><path id="パス_2947" data-name="パス 2947" d="M92.66,22.47h1.28v1.27h1.17V22.47H96.4v3.84H95.11V25H93.94v1.28H92.66Zm5.42,1.28H97V22.47h3.54v1.28H99.37v2.56H98.09V23.75h0Zm3-1.28h1.34l.82,1.35.83-1.35h1.33v3.84h-1.27v-1.9l-.89,1.37h0l-.88-1.37v1.9h-1.26Zm5,0h1.28V25h1.81v1.27H106V22.47Z"/><path id="パス_2948" data-name="パス 2948" class="cls-1" d="M100.86,38.51H104l-.3,3.28-2.81.76v2.63L106,43.75l0-.43.59-6.65.07-.68h-5.87v2.53Zm0-5.11H107l.05-.56.12-1.29.06-.67h-6.33Z"/><path id="パス_2949" data-name="パス 2949" class="cls-26" d="M45.46,37.63a5.25,5.25,0,0,0-.84-1.77l-.06,0h0V35l-.64.1a7.73,7.73,0,0,1-.23-.95.43.43,0,0,0,.48.1l0,0h0a1.19,1.19,0,0,1-.15-.58,2,2,0,0,1,.08-.54c.12-.4.31-.76.42-1.16a3,3,0,0,0-.2-2.06.8.8,0,0,0-.23-.29l-.27-.14a1.27,1.27,0,0,1-.4-.4,3.63,3.63,0,0,0-1.73-1.15,1,1,0,0,0-.56,0c-.42.12-.58.64-.92.91a2.75,2.75,0,0,1-1.1.36,1.8,1.8,0,0,0-1,.53,1.16,1.16,0,0,0-.28.75.75.75,0,0,0,.31.67,1,1,0,0,0,.8.11,2.74,2.74,0,0,0,1.88,3.4l.2.06.08.13h0a5.37,5.37,0,0,1,.51,1.35,5.13,5.13,0,0,1-1.6.67,3.12,3.12,0,0,1-.09.44,2.48,2.48,0,0,1-.5,1c-.52.59-2.88,5-2.88,5l-.2.49a26.21,26.21,0,0,1-4.52.3l-2.61-2.49A1.91,1.91,0,0,0,28.38,43l-.48-.45s-2.48,1.9,1.44,3.14l6,.69a13.19,13.19,0,0,0-.94,4.8h0l.34,0v.19l-.57,10.3a2.93,2.93,0,0,0,1.63,2.75s2.16,6.34,1.31,7.06a2.21,2.21,0,0,0,.27.13l-1.78,1.57a8.11,8.11,0,0,1-2,.26.53.53,0,0,0-.58.39.06.06,0,0,1,0,0v.13s0,0,0,0h0l0,0h0s0,0,0,0h0s0,0,0,0h0l0,0h0l0,0h0l.05,0h0l.06,0h0l.07,0h0l.07,0h0l.09,0h0l.1,0h0l.1,0h0l.12,0h0l.12,0h0l.14,0c.27,0,.63,0,1,0h0v.07a.06.06,0,0,0,0,0v0s0,0,0,0v0a.08.08,0,0,1,0,0h0l0,0h0l0,0h0l.05.05h0l0,0h0l.06,0h0l.06,0h0l.08,0h0l.09,0h0l.1,0h0l.1,0h0l.12,0h0l.12,0h.16c1.7.13,7.14-.26,7.14-.26v0h0v0h0A3.48,3.48,0,0,0,43,72.23l.08-.09s-.73-1.25-.33-1.64-1.92-7.13-1.92-7.13a5.43,5.43,0,0,1-.52-4.19,8.54,8.54,0,0,0-.07-4.65A2.66,2.66,0,0,0,42,51.91v-.2h.19a3.43,3.43,0,0,1,.06-2c.39-.85,1.24-.07,2-3.53.57-2.51,1.07-5.4,1.3-6.8A3.62,3.62,0,0,0,45.46,37.63ZM30.53,45l-.6-.56c.2.08.41.16.66.24l2.25.26a12,12,0,0,1-2.32.07Z"/><path id="パス_2950" data-name="パス 2950" class="cls-11" d="M36.43,47.83a37.43,37.43,0,0,1-5.6.45l-2.57-2.44s-2.44,1.86,1.42,3.09l7.2.83Z"/><path id="パス_2951" data-name="パス 2951" class="cls-27" d="M36.43,47.83a37.43,37.43,0,0,1-5.6.45l-2.57-2.44s-2.44,1.86,1.42,3.09l7.2.83Z"/><path id="パス_2952" data-name="パス 2952" class="cls-28" d="M29.93,50.76,19.93,48,17.7,23H42.19L40,48Z"/><path id="パス_2953" data-name="パス 2953" class="cls-29" d="M35.48,46.36,37.39,25h-10V48.6Z"/><path id="パス_2954" data-name="パス 2954" class="cls-25" d="M22.81,34.24l.28,3.06H30V34.24ZM22.26,28l.28,3.06H30V28ZM30,42.2h0l-3.42-.92-.22-2.45H23.22l.43,4.81,6.28,1.75h0Z"/><path id="パス_2955" data-name="パス 2955" d="M21.49,17.81h3.72v1.56H23.05v1.55h2.16v1.55H21.49Zm4.47,0h3.71v1.35H27.5v.27h2.16v3.11H26V21.12h2.16v-.27H26v-3Zm4.46,0h3.71v1.35H32v.27h2.16v3.11H30.41V21.12h2.16v-.27H30.41v-3Z"/><path id="パス_2956" data-name="パス 2956" class="cls-1" d="M34.55,34.24,35.1,28H27.42v3.06h4.32l-.28,3.14h-4v3.06h3.77l-.36,4-3.41.93v3.19l6.28-1.74,0-.52.72-8.08.08-.82Z"/><path id="パス_2957" data-name="パス 2957" class="cls-30" d="M37.56,70.75l-2.25,2a7.88,7.88,0,0,1-2,.26c-.71-.06-1,1.09.64,1.22S41,74,41,74a3.26,3.26,0,0,0-1-3.22Z"/><path id="パス_2958" data-name="パス 2958" class="cls-27" d="M37.56,70.75l-2.25,2a7.88,7.88,0,0,1-2,.26c-.71-.06-1,1.09.64,1.22S41,74,41,74a3.26,3.26,0,0,0-1-3.22Z"/><path id="パス_2959" data-name="パス 2959" class="cls-31" d="M41.05,73.08a4.17,4.17,0,0,1-.08.7s-5.34.38-7,.25c-.8-.06-1.15-.36-1.21-.65-.07.33.22.77,1.21.85,1.67.13,7-.26,7-.26A3.78,3.78,0,0,0,41.05,73.08Z"/><path id="パス_2960" data-name="パス 2960" class="cls-11" d="M39.62,38.38s1.41,2,.9,3.34,2.7-1.41,2.7-1.41a5.52,5.52,0,0,1-.52-3.74Z"/><path id="パス_2961" data-name="パス 2961" class="cls-30" d="M39.59,71.52l-2.25,2a8.35,8.35,0,0,1-2,.25c-.71-.06-1,1.1.64,1.22s7-.25,7-.25a3.26,3.26,0,0,0-1-3.22Z"/><path id="パス_2962" data-name="パス 2962" class="cls-12" d="M40.39,71.07a1.72,1.72,0,0,1-1.3.6,5.4,5.4,0,0,1-2.36-.6c.83-.7-1.29-6.94-1.29-6.94a2.88,2.88,0,0,1-1.6-2.7l.56-10.12.14-2.54,1.8-1.09,1.42,1.08,1.34,1a5,5,0,0,1,.17,1,2.67,2.67,0,0,1-1.71,2.92,8.45,8.45,0,0,1,.07,4.57,5.28,5.28,0,0,0,.51,4.11s2.31,6.69,1.93,7.07S40.39,71.07,40.39,71.07Z"/><path id="パス_2963" data-name="パス 2963" class="cls-27" d="M40.39,71.07a1.72,1.72,0,0,1-1.3.6,5.4,5.4,0,0,1-2.36-.6c.83-.7-1.29-6.94-1.29-6.94a2.88,2.88,0,0,1-1.6-2.7l.56-10.12.14-2.54,1.8-1.09,1.42,1.08,1.34,1a5,5,0,0,1,.17,1,2.67,2.67,0,0,1-1.71,2.92,8.45,8.45,0,0,1,.07,4.57,5.28,5.28,0,0,0,.51,4.11s2.31,6.69,1.93,7.07S40.39,71.07,40.39,71.07Z"/><path id="パス_2964" data-name="パス 2964" class="cls-12" d="M42.49,71.84c-1.09,1.35-3.66,0-3.66,0a.34.34,0,0,0,.11-.17c.47-1.28-1.59-7.41-1.59-7.41a3.76,3.76,0,0,1-1.93-2.83L35,51.13,34.9,49.8l2.7-1,.84-.32,2.76,2.12a5.11,5.11,0,0,1,.18,1.35,2.63,2.63,0,0,1-1.72,2.57,8.45,8.45,0,0,1,.06,4.57,5.28,5.28,0,0,0,.52,4.11s2.31,6.68,1.93,7.07S42.49,71.84,42.49,71.84Z"/><path id="パス_2965" data-name="パス 2965" class="cls-6" d="M41.46,54.6a8.8,8.8,0,0,1-2.26-1.11l-.36-.24s-.58-1.6-2.12-.38a5.83,5.83,0,0,1-1.68,1,4.35,4.35,0,0,1-.71.18l.14-2.55,1.8-1.09,1.42,1.09.83-.32,2.76,2.12A5.11,5.11,0,0,1,41.46,54.6Z"/><path id="パス_2966" data-name="パス 2966" class="cls-32" d="M44.86,42.74c-.23,1.38-.72,4.23-1.27,6.68-.78,3.41-1.61,2.64-2,3.48a3.37,3.37,0,0,0-.06,2c-.64.06-2.76-1.35-2.76-1.35s-.58-1.61-2.13-.39a4.49,4.49,0,0,1-2.76,1.16c-.32-2.12,2.06-7.78,2.06-7.78s2.31-4.37,2.83-4.94a2.47,2.47,0,0,0,.5-1,3.11,3.11,0,0,0,.08-.44,10.54,10.54,0,0,0,2.89-1.48l1.61-.25v.83a.1.1,0,0,1,0,0A4.94,4.94,0,0,1,44.73,41,3.5,3.5,0,0,1,44.86,42.74Z"/><path id="パス_2967" data-name="パス 2967" class="cls-11" d="M38,48.89l-.83-.1-6.37-.74C26.92,46.83,29.37,45,29.37,45l2.57,2.45a31.62,31.62,0,0,0,4.95-.36l.64-.09Z"/><path id="パス_2968" data-name="パス 2968" class="cls-6" d="M43.43,40.4s-1.67-1.35-4.19,3-3.08,3.66-3.08,3.66.51,1.93.26,2.32a13.4,13.4,0,0,1,2.37,0c.65.13,4.63-4.89,4.63-4.89S45.49,41.68,43.43,40.4Z"/><path id="パス_2969" data-name="パス 2969" class="cls-6" d="M43.37,40.17s-1.67-1.35-4.18,3-3.08,3.66-3.08,3.66,2,2.19,2.63,2.32,4.63-4.89,4.63-4.89S45.43,41.45,43.37,40.17Z"/><path id="パス_2970" data-name="パス 2970" class="cls-6" d="M36.57,48.72A8,8,0,0,0,36.31,47l.64-.08.45,1.93Z"/><path id="パス_2971" data-name="パス 2971" class="cls-32" d="M43.43,40.28s-1.67-1.35-4.19,3S36.16,47,36.16,47s.51,1.93.26,2.31a13.4,13.4,0,0,1,2.37,0c.65.13,4.63-4.88,4.63-4.88S45.49,41.57,43.43,40.28Z"/><path id="パス_2972" data-name="パス 2972" class="cls-6" d="M42.78,36.83l-3.09,1.8c.13.19.25.39.36.59a2.48,2.48,0,0,0,.54.06c.83,0,1.21-.87,1.7-1.45C42.26,37.36,42.64,37.35,42.78,36.83Z"/><circle id="楕円形_84" data-name="楕円形 84" class="cls-11" cx="40.63" cy="36.61" r="2.7"/><path id="パス_2973" data-name="パス 2973" class="cls-6" d="M37.28,34.51a1.84,1.84,0,0,1,1-.53,2.58,2.58,0,0,0,1.08-.34c.34-.27.49-.79.91-.9a.91.91,0,0,1,.54,0,3.48,3.48,0,0,1,1.7,1.14,1.65,1.65,0,0,0,.4.39l.27.13a.72.72,0,0,1,.22.29,2.82,2.82,0,0,1,.2,2c-.1.39-.3.74-.41,1.13A1.53,1.53,0,0,0,43.26,39a.49.49,0,0,1-.57-.21,2.36,2.36,0,0,1-.22-.63,2.44,2.44,0,0,0-.7-1.08c-.2-.18-.57-.3-.71-.07s-.05.2-.1.3a.4.4,0,0,1-.53.12.87.87,0,0,1-.34-.5c-.26-.9-.71-1.46-1.67-1.08a1.17,1.17,0,0,1-1.12,0,.92.92,0,0,1-.06-1.29Z"/><path id="パス_2974" data-name="パス 2974" class="cls-33" d="M37.28,34.45a1.84,1.84,0,0,1,1-.53,2.58,2.58,0,0,0,1.08-.34c.34-.27.49-.79.91-.9a1,1,0,0,1,.54,0,3.48,3.48,0,0,1,1.7,1.14,1.65,1.65,0,0,0,.4.39l.27.13a.8.8,0,0,1,.22.29,2.83,2.83,0,0,1,.2,2c-.1.39-.3.75-.41,1.13a1.53,1.53,0,0,0,.06,1.17.47.47,0,0,1-.57-.21,2.36,2.36,0,0,1-.22-.63,2.44,2.44,0,0,0-.7-1.08c-.2-.18-.57-.3-.71-.07s-.05.2-.1.3a.4.4,0,0,1-.53.12.87.87,0,0,1-.34-.5c-.26-.9-.71-1.46-1.67-1.08a1.17,1.17,0,0,1-1.12,0,.92.92,0,0,1-.06-1.29Z"/><path id="パス_2975" data-name="パス 2975" class="cls-27" d="M43.56,40.1h-1.3s-2.57,1.29-2.64,1.23a2,2,0,0,0-.69.08A2.14,2.14,0,0,0,39,41a10.6,10.6,0,0,0,2.9-1.48l1.6-.25v.83Z"/><path id="パス_2976" data-name="パス 2976" class="cls-31" d="M43.07,73.85a3.34,3.34,0,0,1-.08.7s-5.33.38-7,.25c-.8-.06-1.14-.36-1.2-.64-.08.33.22.76,1.2.84,1.68.13,7-.26,7-.26A3.78,3.78,0,0,0,43.07,73.85Z"/><g id="グループ_1151" data-name="グループ 1151" class="cls-34"><path id="パス_2977" data-name="パス 2977" d="M36,53.05a5.63,5.63,0,0,1-2.14,1.08.77.77,0,0,0,0,.15,4.57,4.57,0,0,0,2.76-1.16,2,2,0,0,1,.83-.43C37.16,52.52,36.68,52.53,36,53.05Z"/><path id="パス_2978" data-name="パス 2978" d="M44.76,41a5.27,5.27,0,0,0-.83-1.74l-.06,0s-.53,0-.51,0a4.85,4.85,0,0,1,.75,1.67,3.43,3.43,0,0,1,.14,1.71C44,44,43.53,46.86,43,49.32c-.77,3.41-1.6,2.63-2,3.47a3.38,3.38,0,0,0-.09,1.89,1.75,1.75,0,0,0,.67.17,3.38,3.38,0,0,1,.07-2c.38-.84,1.22-.07,2-3.48.56-2.46,1.05-5.3,1.28-6.68a3.63,3.63,0,0,0-.14-1.7Z"/></g><path id="パス_2979" data-name="パス 2979" class="cls-4" d="M51.08,52.64a1.39,1.39,0,0,0,.46-.7.61.61,0,0,0-.32-.71.91.91,0,0,0-.85.3,1.12,1.12,0,0,1-.83.4,1.28,1.28,0,0,0,.39-1.18.53.53,0,0,0-.11-.24c-.17-.18-.47-.1-.66,0a2.46,2.46,0,0,0-.81,2.06,4,4,0,0,1,0-.85A.91.91,0,0,0,48,51a.89.89,0,0,0-.48-.11,1,1,0,0,0-.79.22.78.78,0,0,0,0,1,3.06,3.06,0,0,0,.82.65,1.82,1.82,0,0,1,.58.56.3.3,0,0,1,0,.1H50A4.84,4.84,0,0,0,51.08,52.64Z"/><path id="パス_2980" data-name="パス 2980" class="cls-4" d="M54.1,72.52a1.9,1.9,0,0,0,.63-.94.84.84,0,0,0-.44-1,1.25,1.25,0,0,0-1.16.41,1.52,1.52,0,0,1-1.12.54,1.74,1.74,0,0,0,.53-1.6.63.63,0,0,0-.15-.32c-.22-.24-.63-.14-.9,0a3.38,3.38,0,0,0-1.09,2.79,5.53,5.53,0,0,1,0-1.15,1.21,1.21,0,0,0-.43-1,1.28,1.28,0,0,0-.66-.15,1.34,1.34,0,0,0-1.07.3,1.07,1.07,0,0,0,0,1.31,4.15,4.15,0,0,0,1.11.89,2.45,2.45,0,0,1,.79.75l.06.14h2.4A6.82,6.82,0,0,0,54.1,72.52Z"/></g></g></g></g></svg>