<svg xmlns="http://www.w3.org/2000/svg" viewBox="0 0 24 24"><defs><style>.cls-1,.cls-2{fill:none;}.cls-2{stroke:#212121;}</style></defs><g id="レイヤー_2" data-name="レイヤー 2"><g id="レイヤー_1-2" data-name="レイヤー 1"><path id="パス_2826" data-name="パス 2826" class="cls-1" d="M0,0H24V24H0Z"/><path id="パス_2827" data-name="パス 2827" class="cls-2" d="M1,21H5V9H1ZM23,10a2,2,0,0,0-2-2H14.69l1-4.57,0-.32a1.5,1.5,0,0,0-.44-1.06L14.17,1,7.59,7.59A2,2,0,0,0,7,9V19a2,2,0,0,0,2,2h9a2,2,0,0,0,1.84-1.22l3-7A2,2,0,0,0,23,12Z"/></g></g></svg>