<svg xmlns="http://www.w3.org/2000/svg" width="32" height="32" viewBox="0 0 32 32"><defs><style>.a{fill:none;}.b{fill:#bdbdbd;}</style></defs><g transform="translate(-463 -2120)"><rect class="a" width="32" height="32" transform="translate(463 2120)"/><g transform="translate(467 2124)"><path class="a" d="M0,0H24V24H0Z"/><path class="b" d="M21.089,19.079V5.01A2.016,2.016,0,0,0,19.079,3H5.01A2.016,2.016,0,0,0,3,5.01V19.079a2.016,2.016,0,0,0,2.01,2.01H19.079A2.016,2.016,0,0,0,21.089,19.079ZM8.527,13.552l2.512,3.025,3.517-4.532,4.522,6.03H5.01Z" transform="translate(-0.045 -0.045)"/></g></g></svg>