<svg xmlns="http://www.w3.org/2000/svg" viewBox="0 0 32 32"><defs><style>.cls-1{fill:#fff;}.cls-2{fill:#138f34;}</style></defs><g id="レイヤー_2" data-name="レイヤー 2"><g id="レイヤー_1-2" data-name="レイヤー 1"><g id="グループ_1121" data-name="グループ 1121"><path id="パス_2831" data-name="パス 2831" class="cls-1" d="M32,13.63C32,6.11,24.82,0,16,0S0,6.11,0,13.63C0,20.36,5.69,26,13.38,27.08c.52.12,1.23.36,1.41.83a3.63,3.63,0,0,1,.05,1.54l-.23,1.41c-.07.42-.32,1.66,1.38.9s9.24-5.7,12.58-9.75h0A12.49,12.49,0,0,0,32,13.63"/><path id="パス_2832" data-name="パス 2832" class="cls-2" d="M12.76,10.11H11.62a.31.31,0,0,0-.31.31h0v7.06a.31.31,0,0,0,.31.31h1.14a.31.31,0,0,0,.32-.31h0v-7a.32.32,0,0,0-.32-.32h0"/><path id="パス_2833" data-name="パス 2833" class="cls-2" d="M20.5,10.11H19.39a.31.31,0,0,0-.32.31h0v4.2l-3.25-4.37,0,0h0l0,0H14.51a.31.31,0,0,0-.31.31h0v7.06a.31.31,0,0,0,.31.31h1.14a.32.32,0,0,0,.32-.31V13.29l3.24,4.38.08.08h0l.06.05H20.5a.31.31,0,0,0,.32-.31h0V10.43a.32.32,0,0,0-.32-.32h0"/><path id="パス_2834" data-name="パス 2834" class="cls-2" d="M10.1,16H7V10.42a.31.31,0,0,0-.31-.31H5.55a.31.31,0,0,0-.31.31h0v7.06h0a.35.35,0,0,0,.08.22h0a.35.35,0,0,0,.22.08H10.1a.31.31,0,0,0,.31-.31h0V16.35A.32.32,0,0,0,10.1,16h0"/><path id="パス_2835" data-name="パス 2835" class="cls-2" d="M26.7,11.86a.31.31,0,0,0,.31-.32h0V10.42a.31.31,0,0,0-.31-.31H22.13a.31.31,0,0,0-.22.09h0a.36.36,0,0,0-.09.22h0v7h0a.36.36,0,0,0,.09.22h0a.31.31,0,0,0,.22.09H26.7a.31.31,0,0,0,.31-.32h0V16.35A.31.31,0,0,0,26.7,16H23.59V14.82H26.7a.32.32,0,0,0,.32-.31h0V13.38a.32.32,0,0,0-.32-.31H23.59V11.86Z"/></g></g></g></svg>